{"glyphs":{"0":{"ha":1014,"x_min":0,"x_max":0,"o":"m 506 -17 b 939 486 765 -17 939 204 b 508 989 939 771 765 989 b 75 486 250 989 75 768 b 506 -17 75 201 246 -17 z m 508 176 b 294 486 379 176 294 308 b 506 796 294 667 378 796 b 719 486 633 796 719 663 b 508 176 719 307 638 176 z "},"1":{"ha":586,"x_min":0,"x_max":0,"o":"m 247 0 l 458 0 l 458 979 l 313 979 l 33 896 l 78 721 l 247 763 z "},"2":{"ha":865,"x_min":0,"x_max":0,"o":"m 68 0 l 788 0 l 788 185 l 364 185 l 522 307 b 778 683 694 440 778 521 b 443 986 778 868 644 986 b 81 785 269 986 176 915 l 231 664 b 429 794 303 753 354 794 b 560 668 506 794 560 750 b 392 435 560 588 513 535 l 68 169 z "},"3":{"ha":863,"x_min":0,"x_max":0,"o":"m 432 -17 b 782 301 649 -17 782 118 b 521 576 782 485 653 554 l 767 811 l 767 972 l 110 972 l 110 789 l 492 789 l 260 556 l 293 419 l 382 419 b 572 296 501 419 572 375 b 435 175 572 221 515 175 b 200 292 336 175 267 217 l 53 151 b 432 -17 136 53 257 -17 z "},"4":{"ha":957,"x_min":0,"x_max":0,"o":"m 553 0 l 757 0 l 757 210 l 888 210 l 888 383 l 757 383 l 757 979 l 576 979 l 43 361 l 78 210 l 553 210 z m 294 383 l 553 686 l 553 383 z "},"5":{"ha":875,"x_min":0,"x_max":0,"o":"m 424 -17 b 793 319 647 -17 793 114 b 453 633 793 542 642 633 b 325 617 399 633 364 626 l 336 785 l 750 785 l 750 972 l 153 972 l 125 493 l 249 411 b 411 447 294 431 350 447 b 583 315 513 447 583 399 b 421 178 583 226 521 178 b 189 283 335 178 263 217 l 60 129 b 424 -17 154 39 268 -17 z "},"6":{"ha":919,"x_min":0,"x_max":0,"o":"m 471 -17 b 842 319 682 -17 842 121 b 500 632 842 525 693 632 b 299 569 404 632 347 601 b 494 794 313 697 374 794 b 693 717 578 794 629 765 l 806 882 b 501 989 719 950 633 989 b 75 458 211 989 75 758 b 190 88 75 263 119 158 b 471 -17 258 19 344 -17 z m 463 167 b 293 311 357 167 293 229 b 460 454 293 396 354 454 b 629 313 565 454 629 394 b 463 167 629 226 568 167 z "},"7":{"ha":860,"x_min":0,"x_max":0,"o":"m 117 0 l 358 0 l 794 811 l 794 972 l 94 972 l 94 788 l 551 788 z "},"8":{"ha":875,"x_min":0,"x_max":0,"o":"m 438 -14 b 813 272 653 -14 813 92 b 656 504 813 390 754 453 b 779 717 731 550 779 613 b 438 986 779 869 643 986 b 96 719 232 986 96 868 b 219 504 96 613 144 550 b 63 269 117 457 63 388 b 438 -14 63 97 222 -14 z m 438 575 b 299 694 353 575 299 626 b 438 810 299 757 350 810 b 576 696 525 810 576 756 b 438 575 576 625 522 575 z m 438 163 b 269 283 332 163 269 217 b 438 406 269 361 340 406 b 606 286 535 406 606 361 b 438 163 606 215 543 163 z "},"9":{"ha":919,"x_min":0,"x_max":0,"o":"m 419 -17 b 844 514 696 -17 844 199 b 729 883 844 708 799 814 b 449 989 656 957 579 989 b 78 649 229 989 78 844 b 425 332 78 449 214 332 b 622 399 510 332 575 358 b 425 178 608 268 544 178 b 213 261 343 178 283 204 l 100 99 b 419 -17 182 31 278 -17 z m 460 510 b 290 656 354 510 290 569 b 456 806 290 744 350 806 b 626 657 563 806 626 743 b 460 510 626 571 565 510 z "}," ":{"ha":417,"x_min":0,"x_max":0,"o":""},"!":{"ha":450,"x_min":0,"x_max":0,"o":"m 167 331 l 283 331 l 349 944 l 349 972 l 101 972 l 101 944 z m 113 0 l 338 0 l 338 222 l 113 222 z "},"\"":{"ha":722,"x_min":0,"x_max":0,"o":"m 407 529 l 514 529 l 665 965 l 665 972 l 432 972 z m 79 529 l 186 529 l 338 965 l 338 972 l 104 972 z "},"#":{"ha":972,"x_min":0,"x_max":0,"o":"m 118 0 l 301 0 l 338 208 l 539 208 l 503 0 l 686 0 l 722 208 l 875 208 l 875 386 l 753 386 l 788 592 l 924 592 l 924 769 l 818 769 l 853 972 l 669 972 l 635 769 l 433 769 l 468 972 l 285 972 l 250 769 l 97 769 l 97 592 l 219 592 l 185 386 l 49 386 l 49 208 l 154 208 z m 368 386 l 403 592 l 604 592 l 569 386 z "},"$":{"ha":897,"x_min":0,"x_max":0,"o":"m 389 -136 l 533 -136 l 533 1 b 828 275 710 21 828 121 b 526 576 828 433 738 519 l 526 786 b 699 704 585 771 643 742 l 792 867 b 533 969 717 919 632 956 l 533 1053 l 389 1053 l 389 972 b 97 700 214 954 97 854 b 396 403 97 533 196 457 l 396 182 b 169 294 314 199 244 238 l 61 136 b 389 4 153 67 269 19 z m 396 611 b 300 710 319 639 300 667 b 396 799 300 757 329 790 z m 526 175 l 526 369 b 625 267 601 342 625 314 b 526 175 625 214 592 185 z "},"%":{"ha":1194,"x_min":0,"x_max":0,"o":"m 297 486 b 535 735 439 486 535 599 b 300 983 535 874 440 983 b 63 735 158 983 63 872 b 297 486 63 596 157 486 z m 160 0 l 325 0 l 1035 972 l 869 972 z m 894 -11 b 1132 238 1036 -11 1132 101 b 897 486 1132 376 1038 486 b 660 238 756 486 660 375 b 894 -11 660 99 754 -11 z m 300 613 b 208 735 244 613 208 669 b 297 857 208 801 239 857 b 389 735 353 857 389 800 b 300 613 389 669 358 613 z m 897 115 b 806 238 842 115 806 172 b 894 360 806 304 836 360 b 986 238 950 360 986 303 b 897 115 986 172 956 115 z "},"&":{"ha":967,"x_min":0,"x_max":0,"o":"m 771 -19 l 928 90 l 785 233 b 913 439 833 299 875 371 l 756 525 b 661 358 725 465 693 408 l 532 488 b 736 742 653 535 736 611 b 463 989 736 881 628 989 b 168 733 275 989 168 867 b 236 536 168 664 189 603 b 47 269 114 481 47 393 b 374 -14 47 94 188 -14 b 658 94 486 -14 579 29 z m 421 600 b 364 721 381 646 364 678 b 458 822 364 782 401 822 b 550 732 513 822 550 788 b 421 600 550 668 506 632 z m 399 161 b 263 275 319 161 263 207 b 353 406 263 325 289 372 l 539 217 b 399 161 494 182 447 161 z "},"'":{"ha":397,"x_min":0,"x_max":0,"o":"m 79 529 l 189 529 l 340 965 l 340 972 l 104 972 z "},"(":{"ha":618,"x_min":0,"x_max":0,"o":"m 467 -196 l 560 -56 b 292 399 372 75 292 203 b 560 853 292 594 372 722 l 467 993 b 82 399 211 854 82 665 b 467 -196 82 132 211 -57 z "},")":{"ha":618,"x_min":0,"x_max":0,"o":"m 151 -196 b 536 399 407 -57 536 132 b 151 993 536 665 407 854 l 58 853 b 326 399 246 722 326 594 b 58 -56 326 203 246 75 z "},"*":{"ha":597,"x_min":0,"x_max":0,"o":"m 242 517 l 356 517 l 333 683 l 468 581 l 526 681 l 371 746 l 526 811 l 468 911 l 333 808 l 356 975 l 242 975 l 264 808 l 129 911 l 71 811 l 226 746 l 71 681 l 129 581 l 264 683 z "},"+":{"ha":889,"x_min":0,"x_max":0,"o":"m 346 143 l 543 143 l 543 393 l 794 393 l 794 585 l 543 585 l 543 835 l 346 835 l 346 585 l 94 585 l 94 393 l 346 393 z "},",":{"ha":397,"x_min":0,"x_max":0,"o":"m 54 -225 b 311 35 219 -222 311 -149 l 311 222 l 86 222 l 86 0 l 172 0 l 172 -15 b 36 -137 172 -86 126 -128 z "},"-":{"ha":567,"x_min":0,"x_max":0,"o":"m 69 329 l 497 329 l 497 532 l 69 532 z "},".":{"ha":397,"x_min":0,"x_max":0,"o":"m 86 0 l 311 0 l 311 222 l 86 222 z "},"/":{"ha":736,"x_min":0,"x_max":0,"o":"m -39 -178 l 140 -178 l 756 1108 l 576 1108 z "},":":{"ha":411,"x_min":0,"x_max":0,"o":"m 93 522 l 318 522 l 318 744 l 93 744 z m 93 0 l 318 0 l 318 222 l 93 222 z "},";":{"ha":411,"x_min":0,"x_max":0,"o":"m 93 522 l 318 522 l 318 744 l 93 744 z m 61 -225 b 318 35 226 -222 318 -149 l 318 222 l 93 222 l 93 0 l 179 0 l 179 -15 b 43 -137 179 -86 133 -128 z "},"<":{"ha":889,"x_min":0,"x_max":0,"o":"m 767 99 l 767 297 l 297 490 l 767 683 l 767 879 l 94 585 l 94 393 z "},"=":{"ha":889,"x_min":0,"x_max":0,"o":"m 115 574 l 774 574 l 774 765 l 115 765 z m 115 213 l 774 213 l 774 404 l 115 404 z "},">":{"ha":889,"x_min":0,"x_max":0,"o":"m 122 99 l 794 393 l 794 585 l 122 879 l 122 681 l 592 488 l 122 294 z "},"?":{"ha":756,"x_min":0,"x_max":0,"o":"m 274 331 l 415 331 l 431 415 b 704 694 582 446 704 518 b 368 985 704 882 568 985 b 28 835 217 985 108 924 l 156 694 b 364 790 219 758 286 790 b 492 692 444 790 492 754 b 249 563 492 615 424 569 l 242 556 z m 228 0 l 453 0 l 453 222 l 228 222 z "},"@":{"ha":1361,"x_min":0,"x_max":0,"o":"m 693 -225 b 1061 -121 838 -225 954 -186 l 1033 -76 b 693 -169 929 -137 831 -169 b 132 381 365 -169 132 75 b 682 933 132 685 368 933 b 1229 439 994 933 1229 696 b 1053 156 1229 254 1151 156 b 951 243 989 156 951 193 b 956 286 951 254 953 272 l 1021 660 l 857 686 l 842 613 b 650 707 803 665 746 707 b 339 358 488 707 339 554 b 593 90 339 193 451 90 b 799 174 683 90 751 131 b 1011 90 833 133 899 90 b 1288 439 1164 90 1288 207 b 682 989 1288 724 1022 989 b 74 381 342 989 74 713 b 693 -225 74 49 338 -225 z m 642 233 b 511 368 565 233 511 282 b 678 564 511 479 588 564 b 807 433 753 564 807 513 b 642 233 807 319 729 233 z "},"A":{"ha":1097,"x_min":0,"x_max":0,"o":"m 33 0 l 251 0 l 340 218 l 751 218 l 840 0 l 1064 0 l 647 979 l 450 979 z m 417 407 l 546 722 l 675 407 z "},"B":{"ha":1003,"x_min":0,"x_max":0,"o":"m 117 0 l 579 0 b 943 267 799 0 943 89 b 761 508 943 400 874 465 b 889 718 831 547 889 608 b 822 886 889 788 867 842 b 568 972 767 942 679 972 l 117 972 z m 325 579 l 325 785 l 536 785 b 676 685 626 785 676 749 b 522 579 676 610 617 579 z m 325 188 l 325 401 l 572 401 b 731 296 682 401 731 361 b 579 188 731 221 674 188 z "},"C":{"ha":1025,"x_min":0,"x_max":0,"o":"m 572 -17 b 971 149 760 -17 871 42 l 835 294 b 579 181 758 225 690 181 b 297 486 413 181 297 319 b 579 792 297 656 415 792 b 829 683 690 792 754 751 l 957 831 b 581 989 867 919 764 989 b 74 486 282 989 74 763 b 572 -17 74 204 286 -17 z "},"D":{"ha":1086,"x_min":0,"x_max":0,"o":"m 117 0 l 496 0 b 1013 486 801 0 1013 213 b 496 972 1013 763 801 972 l 117 972 z m 331 193 l 331 779 l 496 779 b 789 486 671 779 789 658 b 496 193 789 311 671 193 z "},"E":{"ha":931,"x_min":0,"x_max":0,"o":"m 117 0 l 857 0 l 857 190 l 329 190 l 329 394 l 788 394 l 788 585 l 329 585 l 329 782 l 850 782 l 850 972 l 117 972 z "},"F":{"ha":911,"x_min":0,"x_max":0,"o":"m 117 0 l 331 0 l 331 376 l 794 376 l 794 571 l 331 571 l 331 778 l 857 778 l 857 972 l 117 972 z "},"G":{"ha":1089,"x_min":0,"x_max":0,"o":"m 585 -17 b 1000 138 763 -17 900 53 l 1000 560 l 578 560 l 578 375 l 793 375 l 793 236 b 592 178 739 197 669 178 b 297 486 419 178 297 308 b 576 792 297 654 421 792 b 831 693 689 792 756 756 l 965 856 b 583 989 864 942 758 989 b 74 486 289 989 74 763 b 585 -17 74 196 282 -17 z "},"H":{"ha":1056,"x_min":0,"x_max":0,"o":"m 117 0 l 331 0 l 331 390 l 725 390 l 725 0 l 939 0 l 939 972 l 725 972 l 725 588 l 331 588 l 331 972 l 117 972 z "},"I":{"ha":467,"x_min":0,"x_max":0,"o":"m 126 0 l 340 0 l 340 972 l 126 972 z "},"J":{"ha":783,"x_min":0,"x_max":0,"o":"m 338 -14 b 590 76 443 -14 531 17 b 682 336 649 135 682 221 l 682 972 l 463 972 l 463 346 b 332 185 463 233 413 185 b 154 282 264 185 210 221 l 19 132 b 338 -14 86 53 186 -14 z "},"K":{"ha":1014,"x_min":0,"x_max":0,"o":"m 117 0 l 331 0 l 331 297 l 443 414 l 744 0 l 1001 0 l 588 560 l 983 972 l 725 972 l 331 547 l 331 972 l 117 972 z "},"L":{"ha":860,"x_min":0,"x_max":0,"o":"m 117 0 l 815 0 l 815 194 l 331 194 l 331 972 l 117 972 z "},"M":{"ha":1206,"x_min":0,"x_max":0,"o":"m 117 0 l 326 0 l 326 631 l 597 219 l 603 219 l 876 635 l 876 0 l 1089 0 l 1089 972 l 858 972 l 603 561 l 347 972 l 117 972 z "},"N":{"ha":1097,"x_min":0,"x_max":0,"o":"m 117 0 l 328 0 l 328 618 l 799 0 l 981 0 l 981 972 l 769 972 l 769 374 l 314 972 l 117 972 z "},"O":{"ha":1181,"x_min":0,"x_max":0,"o":"m 589 -17 b 1107 486 889 -17 1107 210 b 592 989 1107 765 892 989 b 74 486 292 989 74 763 b 589 -17 74 207 289 -17 z m 592 181 b 297 486 419 181 297 319 b 589 792 297 656 417 792 b 883 486 761 792 883 653 b 592 181 883 317 764 181 z "},"P":{"ha":928,"x_min":0,"x_max":0,"o":"m 117 0 l 331 0 l 331 292 l 493 292 b 886 633 711 292 886 408 b 514 972 886 835 746 972 l 117 972 z m 331 482 l 331 779 l 496 779 b 669 632 603 779 669 728 b 500 482 669 546 607 482 z "},"Q":{"ha":1181,"x_min":0,"x_max":0,"o":"m 985 -29 l 1121 122 l 1021 207 b 1107 486 1076 288 1107 385 b 592 989 1107 765 892 989 b 74 486 292 989 74 763 b 589 -17 74 207 289 -17 b 878 67 697 -17 796 14 z m 592 181 b 297 486 419 181 297 319 b 589 792 297 656 417 792 b 883 486 761 792 883 653 b 857 350 883 435 875 390 l 697 494 l 561 342 l 719 207 b 592 181 682 190 639 181 z "},"R":{"ha":1004,"x_min":0,"x_max":0,"o":"m 117 0 l 331 0 l 331 311 l 496 311 l 707 0 l 957 0 l 719 347 b 928 649 843 393 928 492 b 844 874 928 743 899 819 b 561 972 781 938 685 972 l 117 972 z m 331 500 l 331 779 l 543 779 b 711 640 647 779 711 732 b 547 500 711 556 651 500 z "},"S":{"ha":889,"x_min":0,"x_max":0,"o":"m 463 -14 b 819 288 672 -14 819 94 b 511 582 819 460 708 531 b 301 710 343 625 301 646 b 426 797 301 760 344 797 b 679 701 508 797 593 761 l 790 863 b 429 986 692 942 571 986 b 89 693 231 986 89 869 b 411 393 89 497 215 443 b 607 269 574 351 607 324 b 467 175 607 210 554 175 b 176 293 356 175 264 221 l 50 142 b 463 -14 167 38 315 -14 z "},"T":{"ha":900,"x_min":0,"x_max":0,"o":"m 343 0 l 557 0 l 557 775 l 853 775 l 853 972 l 47 972 l 47 775 l 343 775 z "},"U":{"ha":1050,"x_min":0,"x_max":0,"o":"m 522 -15 b 949 424 783 -15 949 129 l 949 972 l 735 972 l 735 415 b 525 182 735 261 656 182 b 315 422 394 182 315 264 l 315 972 l 101 972 l 101 417 b 522 -15 101 131 261 -15 z "},"V":{"ha":1042,"x_min":0,"x_max":0,"o":"m 426 -7 l 615 -7 l 1008 972 l 778 972 l 524 288 l 269 972 l 33 972 z "},"W":{"ha":1558,"x_min":0,"x_max":0,"o":"m 374 -7 l 560 -7 l 779 629 l 999 -7 l 1185 -7 l 1517 972 l 1293 972 l 1092 314 l 874 975 l 690 975 l 472 314 l 271 972 l 42 972 z "},"X":{"ha":1017,"x_min":0,"x_max":0,"o":"m 43 0 l 286 0 l 506 333 l 724 0 l 974 0 l 635 497 l 960 972 l 717 972 l 511 657 l 307 972 l 57 972 l 382 494 z "},"Y":{"ha":994,"x_min":0,"x_max":0,"o":"m 390 0 l 604 0 l 604 388 l 978 972 l 735 972 l 499 582 l 267 972 l 17 972 l 390 383 z "},"Z":{"ha":983,"x_min":0,"x_max":0,"o":"m 88 0 l 897 0 l 897 188 l 363 188 l 897 810 l 897 972 l 104 972 l 104 785 l 622 785 l 88 163 z "},"[":{"ha":646,"x_min":0,"x_max":0,"o":"m 115 -181 l 564 -181 l 564 -15 l 318 -15 l 318 807 l 564 807 l 564 972 l 115 972 z "},"\\":{"ha":736,"x_min":0,"x_max":0,"o":"m 596 -178 l 775 -178 l 160 1108 l -19 1108 z "},"]":{"ha":646,"x_min":0,"x_max":0,"o":"m 82 -181 l 531 -181 l 531 972 l 82 972 l 82 807 l 328 807 l 328 -15 l 82 -15 z "},"^":{"ha":694,"x_min":0,"x_max":0,"o":"m 69 685 l 219 685 l 346 847 l 472 685 l 625 685 l 419 972 l 275 972 z "},"_":{"ha":833,"x_min":0,"x_max":0,"o":"m -3 -222 l 836 -222 l 836 -61 l -3 -61 z "},"`":{"ha":694,"x_min":0,"x_max":0,"o":"m 331 826 l 492 826 l 335 1072 l 153 993 z "},"a":{"ha":822,"x_min":0,"x_max":0,"o":"m 306 -14 b 531 81 408 -14 479 24 l 531 0 l 735 0 l 735 432 b 654 669 735 532 710 614 b 403 753 601 722 518 753 b 114 693 276 753 196 729 l 167 532 b 372 572 235 557 292 572 b 532 436 478 572 532 524 l 532 424 b 350 454 479 442 425 454 b 50 217 174 454 50 379 b 306 -14 50 67 165 -14 z m 369 132 b 254 222 301 132 254 165 b 400 328 254 292 310 328 b 535 300 451 328 499 317 l 535 263 b 369 132 535 186 468 132 z "},"b":{"ha":938,"x_min":0,"x_max":0,"o":"m 538 -14 b 876 371 714 -14 876 122 b 538 758 876 622 711 758 b 306 638 428 758 357 707 l 306 1014 l 94 1014 l 94 0 l 306 0 l 306 97 b 538 -14 356 38 425 -14 z m 483 165 b 303 371 385 165 303 247 b 483 579 303 497 385 579 b 665 374 582 579 665 497 b 483 165 665 246 582 165 z "},"c":{"ha":793,"x_min":0,"x_max":0,"o":"m 446 -17 b 750 119 594 -17 678 40 l 626 244 b 456 165 575 196 526 165 b 267 371 340 165 267 257 b 447 576 267 483 342 576 b 621 503 531 576 575 546 l 744 628 b 449 758 675 706 589 758 b 58 371 221 758 58 583 b 446 -17 58 156 222 -17 z "},"d":{"ha":938,"x_min":0,"x_max":0,"o":"m 400 -14 b 632 107 510 -14 581 38 l 632 0 l 843 0 l 843 1014 l 632 1014 l 632 647 b 400 758 582 707 513 758 b 61 374 224 758 61 622 b 400 -14 61 122 226 -14 z m 454 165 b 272 371 356 165 272 247 b 454 579 272 499 356 579 b 635 374 553 579 635 497 b 454 165 635 247 553 165 z "},"e":{"ha":851,"x_min":0,"x_max":0,"o":"m 447 -17 b 751 122 582 -17 682 36 l 631 229 b 450 153 572 175 521 153 b 268 299 356 153 289 203 l 786 299 b 789 354 788 318 789 338 b 426 758 789 565 675 758 b 58 371 210 758 58 583 b 447 -17 58 140 224 -17 z m 265 431 b 426 589 282 526 339 589 b 583 431 515 589 571 525 z "},"f":{"ha":531,"x_min":0,"x_max":0,"o":"m 131 0 l 342 0 l 342 564 l 510 564 l 510 736 l 339 736 l 339 765 b 415 846 339 821 367 846 b 511 828 451 846 481 839 l 511 1003 b 361 1024 472 1015 428 1024 b 190 965 286 1024 229 1004 b 131 785 151 926 131 867 l 131 738 l 43 738 l 43 564 l 131 564 z "},"g":{"ha":938,"x_min":0,"x_max":0,"o":"m 428 -225 b 749 -125 572 -225 679 -194 b 843 168 811 -62 843 35 l 843 744 l 632 744 l 632 647 b 392 758 575 710 507 758 b 61 411 221 758 61 633 b 392 61 61 188 218 61 b 635 182 504 61 572 107 l 635 146 b 422 -57 635 13 567 -57 b 171 11 324 -57 247 -32 l 99 -147 b 428 -225 193 -197 307 -225 z m 453 236 b 272 408 350 236 272 306 b 453 583 272 513 350 583 b 635 411 556 583 635 513 b 453 236 635 307 556 236 z "},"h":{"ha":865,"x_min":0,"x_max":0,"o":"m 94 0 l 306 0 l 306 415 b 438 567 306 515 357 567 b 565 415 518 567 565 515 l 565 0 l 776 0 l 776 482 b 524 758 776 653 683 758 b 306 639 417 758 354 701 l 306 1014 l 94 1014 z "},"i":{"ha":419,"x_min":0,"x_max":0,"o":"m 99 826 l 321 826 l 321 1014 l 99 1014 z m 104 0 l 315 0 l 315 744 l 104 744 z "},"j":{"ha":419,"x_min":0,"x_max":0,"o":"m 99 826 l 321 826 l 321 1014 l 99 1014 z m 76 -226 b 315 13 232 -226 315 -151 l 315 744 l 104 744 l 104 29 b 29 -57 104 -33 74 -57 b -15 -53 14 -57 1 -56 l -15 -218 b 76 -226 14 -224 38 -226 z "},"k":{"ha":822,"x_min":0,"x_max":0,"o":"m 94 0 l 306 0 l 306 226 l 379 304 l 574 0 l 815 0 l 522 451 l 806 744 l 553 744 l 306 474 l 306 1014 l 94 1014 z "},"l":{"ha":419,"x_min":0,"x_max":0,"o":"m 104 0 l 315 0 l 315 1014 l 104 1014 z "},"m":{"ha":1319,"x_min":0,"x_max":0,"o":"m 94 0 l 306 0 l 306 415 b 433 567 306 515 354 567 b 557 415 513 567 557 515 l 557 0 l 768 0 l 768 415 b 896 567 768 515 817 567 b 1019 415 975 567 1019 515 l 1019 0 l 1231 0 l 1231 485 b 979 758 1231 664 1136 758 b 735 640 878 758 800 717 b 525 758 696 715 622 758 b 306 639 418 758 354 701 l 306 744 l 94 744 z "},"n":{"ha":865,"x_min":0,"x_max":0,"o":"m 94 0 l 306 0 l 306 415 b 438 567 306 515 357 567 b 565 415 518 567 565 515 l 565 0 l 776 0 l 776 482 b 524 758 776 653 683 758 b 306 639 417 758 354 701 l 306 744 l 94 744 z "},"o":{"ha":922,"x_min":0,"x_max":0,"o":"m 460 -17 b 864 371 692 -17 864 157 b 463 758 864 588 693 758 b 58 371 231 758 58 585 b 460 -17 58 154 229 -17 z m 463 165 b 267 371 346 165 267 261 b 460 576 267 483 339 576 b 656 371 576 576 656 481 b 463 165 656 258 583 165 z "},"p":{"ha":938,"x_min":0,"x_max":0,"o":"m 94 -222 l 306 -222 l 306 97 b 538 -14 356 38 425 -14 b 876 371 714 -14 876 122 b 538 758 876 622 711 758 b 306 638 428 758 357 707 l 306 744 l 94 744 z m 483 165 b 303 371 385 165 303 247 b 483 579 303 497 385 579 b 665 374 582 579 665 497 b 483 165 665 246 582 165 z "},"q":{"ha":938,"x_min":0,"x_max":0,"o":"m 632 -222 l 843 -222 l 843 744 l 632 744 l 632 647 b 400 758 582 707 513 758 b 61 374 224 758 61 622 b 400 -14 61 122 226 -14 b 632 107 510 -14 581 38 z m 454 165 b 272 371 356 165 272 247 b 454 579 272 499 356 579 b 635 374 553 579 635 497 b 454 165 635 247 553 165 z "},"r":{"ha":581,"x_min":0,"x_max":0,"o":"m 94 0 l 306 0 l 306 275 b 532 538 306 453 392 538 l 543 538 l 543 758 b 306 594 418 764 349 697 l 306 744 l 94 744 z "},"s":{"ha":697,"x_min":0,"x_max":0,"o":"m 356 -14 b 640 226 517 -14 640 61 b 415 450 640 365 519 415 b 264 539 335 478 264 497 b 342 593 264 571 290 593 b 543 524 396 593 469 567 l 624 669 b 346 756 543 724 440 756 b 74 519 196 756 74 671 b 296 293 74 372 192 324 b 450 207 378 268 450 253 b 361 149 450 171 422 149 b 126 238 292 149 207 179 l 36 99 b 356 -14 135 21 251 -14 z "},"t":{"ha":576,"x_min":0,"x_max":0,"o":"m 346 -12 b 513 31 417 -12 468 4 l 513 200 b 408 174 482 183 447 174 b 340 246 361 174 340 197 l 340 564 l 515 564 l 515 744 l 340 744 l 340 935 l 129 935 l 129 744 l 40 744 l 40 564 l 129 564 l 129 211 b 346 -12 129 39 217 -12 z "},"u":{"ha":865,"x_min":0,"x_max":0,"o":"m 342 -14 b 560 106 449 -14 511 43 l 560 0 l 771 0 l 771 744 l 560 744 l 560 329 b 428 178 560 229 508 178 b 300 329 347 178 300 229 l 300 744 l 89 744 l 89 263 b 342 -14 89 92 182 -14 z "},"v":{"ha":833,"x_min":0,"x_max":0,"o":"m 321 -6 l 513 -6 l 806 744 l 586 744 l 418 246 l 251 744 l 28 744 z "},"w":{"ha":1196,"x_min":0,"x_max":0,"o":"m 263 -6 l 451 -6 l 597 451 l 740 -6 l 931 -6 l 1163 744 l 953 744 l 831 292 l 689 747 l 507 747 l 367 293 l 247 744 l 33 744 z "},"x":{"ha":811,"x_min":0,"x_max":0,"o":"m 32 0 l 253 0 l 403 232 l 553 0 l 779 0 l 517 382 l 768 744 l 547 744 l 407 528 l 268 744 l 42 744 l 293 378 z "},"y":{"ha":833,"x_min":0,"x_max":0,"o":"m 272 -226 b 517 -18 399 -226 460 -169 l 803 744 l 583 744 l 421 238 l 251 744 l 28 744 l 319 -3 b 246 -51 301 -40 282 -51 b 156 -22 218 -51 183 -39 l 85 -175 b 272 -226 139 -207 196 -226 z "},"z":{"ha":782,"x_min":0,"x_max":0,"o":"m 69 0 l 717 0 l 717 171 l 331 171 l 717 596 l 717 744 l 82 744 l 82 574 l 454 574 l 69 149 z "},"{":{"ha":681,"x_min":0,"x_max":0,"o":"m 578 -196 l 615 -56 b 446 110 468 -14 446 25 b 450 213 446 138 450 183 b 306 399 450 314 399 368 b 450 585 399 429 450 483 b 446 688 450 614 446 660 b 615 853 446 772 468 811 l 578 993 b 253 718 324 949 253 860 b 257 622 253 697 257 646 b 104 479 257 514 213 479 l 68 479 l 68 318 l 104 318 b 257 175 213 318 257 283 b 253 79 257 151 253 100 b 578 -196 253 -62 324 -151 z "},"|":{"ha":486,"x_min":0,"x_max":0,"o":"m 160 -178 l 326 -178 l 326 1108 l 160 1108 z "},"}":{"ha":681,"x_min":0,"x_max":0,"o":"m 103 -196 b 428 79 357 -151 428 -62 b 424 175 428 100 424 151 b 576 318 424 283 468 318 l 613 318 l 613 479 l 576 479 b 424 622 468 479 424 514 b 428 718 424 646 428 697 b 103 993 428 860 357 949 l 65 853 b 235 688 213 811 235 772 b 231 585 235 660 231 614 b 375 399 231 483 282 429 b 231 213 282 368 231 314 b 235 110 231 183 235 138 b 65 -56 235 25 213 -14 z "},"~":{"ha":708,"x_min":0,"x_max":0,"o":"m 181 311 b 260 379 200 356 217 379 b 468 325 310 379 382 325 b 640 517 565 325 608 400 l 528 551 b 449 483 508 507 492 483 b 240 538 399 483 326 538 b 68 346 143 538 100 463 z "}," ":{"ha":417,"x_min":0,"x_max":0,"o":""},"¡":{"ha":450,"x_min":0,"x_max":0,"o":"m 113 750 l 338 750 l 338 972 l 113 972 z m 101 0 l 349 0 l 349 28 l 283 642 l 167 642 l 101 28 z "},"¢":{"ha":807,"x_min":0,"x_max":0,"o":"m 289 -8 l 433 -8 l 456 106 b 753 246 590 108 681 165 l 633 367 b 483 289 589 325 542 296 l 560 674 b 628 621 585 661 606 643 l 753 756 b 603 858 711 801 664 838 l 626 981 l 482 981 l 463 881 l 454 881 b 65 493 229 881 65 707 b 315 128 65 324 168 182 z m 358 314 b 269 493 301 349 269 415 b 433 699 269 603 338 690 z "},"£":{"ha":894,"x_min":0,"x_max":0,"o":"m 83 0 l 828 0 l 828 185 l 406 185 l 406 371 l 722 371 l 722 547 l 406 547 l 406 654 b 442 757 406 699 419 735 b 521 788 463 778 488 788 b 668 696 581 788 621 757 l 831 826 b 518 986 764 917 675 986 b 272 897 411 986 329 954 b 189 660 218 843 189 760 l 189 547 l 83 547 l 83 371 l 189 371 l 189 175 l 83 140 z "},"¤":{"ha":1000,"x_min":0,"x_max":0,"o":"m 607 -17 b 947 175 767 -17 865 60 l 794 288 b 607 174 733 213 688 174 b 419 301 518 174 456 219 l 678 301 l 678 442 l 389 442 b 388 486 388 456 388 471 b 389 536 388 506 388 521 l 678 536 l 678 676 l 421 676 b 599 799 457 754 517 799 b 783 689 679 799 731 760 l 944 811 b 603 989 871 914 775 989 b 199 676 399 989 256 860 l 68 676 l 68 536 l 172 536 b 171 486 171 519 171 503 b 172 442 171 469 171 456 l 68 442 l 68 301 l 196 301 b 607 -17 250 111 394 -17 z "},"¥":{"ha":953,"x_min":0,"x_max":0,"o":"m 374 0 l 579 0 l 579 128 l 835 128 l 835 278 l 579 278 l 579 364 l 835 364 l 835 514 l 633 514 l 933 972 l 694 972 l 479 613 l 265 972 l 19 972 l 317 514 l 118 514 l 118 364 l 374 364 l 374 278 l 118 278 l 118 128 l 374 128 z "},"¦":{"ha":308,"x_min":0,"x_max":0,"o":"m 253 571 l 253 918 l 56 918 l 56 571 z m 253 -124 l 253 224 l 56 224 l 56 -124 z "},"§":{"ha":878,"x_min":0,"x_max":0,"o":"m 451 -14 b 736 201 632 -14 736 71 b 678 331 736 253 715 301 b 801 493 744 356 801 401 b 493 703 801 603 713 654 b 340 779 361 732 340 750 b 432 832 340 813 374 832 b 636 740 508 832 572 799 l 750 854 b 426 986 672 939 568 986 b 142 771 249 986 142 903 b 200 642 142 721 160 674 b 76 479 133 617 76 572 b 385 269 76 372 165 318 b 538 193 507 243 538 225 b 446 140 538 161 508 140 b 242 232 369 140 306 174 l 128 118 b 451 -14 206 33 310 -14 z m 540 401 b 401 426 511 401 474 408 b 261 507 306 450 261 471 b 338 571 261 549 294 571 b 476 546 367 571 404 564 b 617 465 572 522 617 501 b 540 401 617 424 583 401 z "},"¨":{"ha":694,"x_min":0,"x_max":0,"o":"m 394 826 l 597 826 l 597 1014 l 394 1014 z m 97 826 l 300 826 l 300 1014 l 97 1014 z "},"©":{"ha":1153,"x_min":0,"x_max":0,"o":"m 575 -17 b 1079 486 857 -17 1079 213 b 578 989 1079 763 860 989 b 74 486 296 989 74 760 b 575 -17 74 210 293 -17 z m 575 39 b 132 483 322 39 132 238 b 578 933 132 732 324 933 b 1021 489 831 933 1021 735 b 575 39 1021 240 829 39 z m 582 217 b 801 313 685 217 746 253 l 724 390 b 586 328 682 353 646 328 b 433 492 496 328 433 403 b 586 658 433 585 497 658 b 721 599 638 658 681 635 l 797 688 b 586 769 747 736 688 769 b 308 493 422 769 308 644 b 582 217 308 338 425 217 z "},"ª":{"ha":542,"x_min":0,"x_max":0,"o":"m 213 554 b 336 607 269 554 308 575 l 336 563 l 449 563 l 449 800 b 404 931 449 854 435 900 b 265 976 375 960 329 976 b 107 943 196 976 153 964 l 136 856 b 249 878 174 869 206 878 b 338 803 307 878 338 850 l 338 796 b 238 813 308 806 278 813 b 72 682 140 813 72 771 b 213 554 72 599 135 554 z m 68 385 l 454 385 l 454 476 l 68 476 z m 247 635 b 185 685 210 635 185 654 b 264 743 185 724 215 743 b 339 728 293 743 318 736 l 339 707 b 247 635 339 665 301 635 z "},"«":{"ha":896,"x_min":0,"x_max":0,"o":"m 668 56 l 829 136 l 649 374 l 829 611 l 668 689 l 435 378 l 435 367 z m 290 56 l 451 136 l 271 374 l 451 611 l 290 689 l 57 378 l 57 367 z "},"¬":{"ha":889,"x_min":0,"x_max":0,"o":"m 581 572 l 581 336 l 778 336 l 778 761 l 108 761 l 108 572 z "},"­":{"ha":567,"x_min":0,"x_max":0,"o":"m 69 329 l 497 329 l 497 532 l 69 532 z "},"®":{"ha":1153,"x_min":0,"x_max":0,"o":"m 575 -17 b 1079 486 857 -17 1079 213 b 578 989 1079 763 860 989 b 74 486 296 989 74 760 b 575 -17 74 210 293 -17 z m 575 39 b 132 483 322 39 132 238 b 578 933 132 732 324 933 b 1021 489 831 933 1021 735 b 575 39 1021 240 829 39 z m 369 233 l 488 233 l 488 406 l 578 406 l 694 233 l 832 233 l 701 425 b 817 590 769 450 817 504 b 772 710 817 640 801 681 b 607 768 735 747 679 768 l 369 768 z m 488 507 l 488 664 l 603 664 b 697 586 661 664 697 638 b 606 507 697 539 665 507 z "},"¯":{"ha":694,"x_min":0,"x_max":0,"o":"m 97 833 l 597 833 l 597 979 l 97 979 z "},"°":{"ha":667,"x_min":0,"x_max":0,"o":"m 333 511 b 574 744 460 511 574 618 b 333 981 574 874 460 981 b 93 747 207 981 93 874 b 333 511 93 618 207 511 z m 333 615 b 206 744 260 615 206 675 b 333 876 206 817 260 876 b 461 747 407 876 461 817 b 333 615 461 675 407 615 z "},"±":{"ha":889,"x_min":0,"x_max":0,"o":"m 108 24 l 781 24 l 781 203 l 108 203 z m 347 288 l 543 288 l 543 483 l 790 483 l 790 672 l 543 672 l 543 868 l 347 868 l 347 672 l 96 672 l 96 483 l 347 483 z "},"²":{"ha":694,"x_min":0,"x_max":0,"o":"m 0 0 l 694 0 l 694 972 l 0 972 z m 113 68 l 347 422 l 583 68 z m 68 133 l 68 839 l 306 486 z m 625 133 l 388 486 l 625 839 z m 347 549 l 113 903 l 583 903 z "},"³":{"ha":694,"x_min":0,"x_max":0,"o":"m 0 0 l 694 0 l 694 972 l 0 972 z m 113 68 l 347 422 l 583 68 z m 68 133 l 68 839 l 306 486 z m 625 133 l 388 486 l 625 839 z m 347 549 l 113 903 l 583 903 z "},"´":{"ha":694,"x_min":0,"x_max":0,"o":"m 203 826 l 364 826 l 542 993 l 360 1072 z "},"µ":{"ha":872,"x_min":0,"x_max":0,"o":"m 306 14 b 375 -6 311 7 338 -6 b 565 110 461 -6 526 47 l 565 0 l 778 0 l 778 744 l 565 744 l 565 332 b 432 172 565 232 515 172 b 306 325 357 172 306 244 l 306 744 l 94 744 l 94 -222 l 306 -222 z "},"¶":{"ha":819,"x_min":0,"x_max":0,"o":"m 489 0 l 703 0 l 703 972 l 432 972 b 49 646 204 972 49 850 b 456 319 49 428 222 319 l 489 319 z "},"·":{"ha":397,"x_min":0,"x_max":0,"o":"m 86 319 l 311 319 l 311 542 l 86 542 z "},"¸":{"ha":694,"x_min":0,"x_max":0,"o":"m 340 -240 l 443 14 l 288 14 l 164 -167 z "},"¹":{"ha":694,"x_min":0,"x_max":0,"o":"m 0 0 l 694 0 l 694 972 l 0 972 z m 113 68 l 347 422 l 583 68 z m 68 133 l 68 839 l 306 486 z m 625 133 l 388 486 l 625 839 z m 347 549 l 113 903 l 583 903 z "},"º":{"ha":542,"x_min":0,"x_max":0,"o":"m 269 553 b 485 765 392 553 485 647 b 272 979 485 886 394 979 b 57 767 150 979 57 885 b 269 553 57 646 147 553 z m 71 385 l 471 385 l 471 476 l 71 476 z m 272 653 b 171 765 211 653 171 706 b 269 879 171 828 208 879 b 371 767 331 879 371 826 b 272 653 371 704 333 653 z "},"»":{"ha":896,"x_min":0,"x_max":0,"o":"m 606 56 l 839 367 l 839 378 l 606 689 l 444 608 l 625 371 l 444 133 z m 228 56 l 461 367 l 461 378 l 228 689 l 67 608 l 247 371 l 67 133 z "},"¼":{"ha":694,"x_min":0,"x_max":0,"o":"m 0 0 l 694 0 l 694 972 l 0 972 z m 113 68 l 347 422 l 583 68 z m 68 133 l 68 839 l 306 486 z m 625 133 l 388 486 l 625 839 z m 347 549 l 113 903 l 583 903 z "},"½":{"ha":694,"x_min":0,"x_max":0,"o":"m 0 0 l 694 0 l 694 972 l 0 972 z m 113 68 l 347 422 l 583 68 z m 68 133 l 68 839 l 306 486 z m 625 133 l 388 486 l 625 839 z m 347 549 l 113 903 l 583 903 z "},"¾":{"ha":694,"x_min":0,"x_max":0,"o":"m 0 0 l 694 0 l 694 972 l 0 972 z m 113 68 l 347 422 l 583 68 z m 68 133 l 68 839 l 306 486 z m 625 133 l 388 486 l 625 839 z m 347 549 l 113 903 l 583 903 z "},"¿":{"ha":756,"x_min":0,"x_max":0,"o":"m 303 750 l 528 750 l 528 972 l 303 972 z m 388 -12 b 728 138 539 -12 647 49 l 600 278 b 392 182 536 214 469 182 b 264 281 311 182 264 218 l 264 283 b 507 410 264 357 332 403 l 514 417 l 482 642 l 340 642 l 325 557 b 51 278 174 526 51 454 l 51 275 b 388 -12 51 90 188 -12 z "},"À":{"ha":1097,"x_min":0,"x_max":0,"o":"m 33 0 l 251 0 l 340 218 l 751 218 l 840 0 l 1064 0 l 647 979 l 450 979 z m 417 407 l 546 722 l 675 407 z m 476 1049 l 638 1049 l 481 1294 l 299 1215 z "},"Á":{"ha":1097,"x_min":0,"x_max":0,"o":"m 33 0 l 251 0 l 340 218 l 751 218 l 840 0 l 1064 0 l 647 979 l 450 979 z m 417 407 l 546 722 l 675 407 z m 460 1049 l 621 1049 l 799 1215 l 617 1294 z "},"Â":{"ha":1097,"x_min":0,"x_max":0,"o":"m 33 0 l 251 0 l 340 218 l 751 218 l 840 0 l 1064 0 l 647 979 l 450 979 z m 417 407 l 546 722 l 675 407 z m 278 1049 l 438 1049 l 547 1140 l 657 1049 l 819 1049 l 649 1267 l 449 1267 z "},"Ã":{"ha":1097,"x_min":0,"x_max":0,"o":"m 33 0 l 251 0 l 340 218 l 751 218 l 840 0 l 1064 0 l 647 979 l 450 979 z m 417 407 l 546 722 l 675 407 z m 375 1035 b 454 1103 394 1079 411 1103 b 663 1049 504 1103 576 1049 b 835 1240 760 1049 803 1124 l 722 1275 b 643 1207 703 1231 686 1207 b 435 1261 593 1207 521 1261 b 263 1069 338 1261 294 1186 z "},"Ä":{"ha":1097,"x_min":0,"x_max":0,"o":"m 33 0 l 251 0 l 340 218 l 751 218 l 840 0 l 1064 0 l 647 979 l 450 979 z m 417 407 l 546 722 l 675 407 z m 596 1049 l 799 1049 l 799 1236 l 596 1236 z m 299 1049 l 501 1049 l 501 1236 l 299 1236 z "},"Å":{"ha":1097,"x_min":0,"x_max":0,"o":"m 33 0 l 251 0 l 340 218 l 751 218 l 840 0 l 1064 0 l 658 954 b 717 1075 693 985 717 1028 l 717 1078 b 549 1239 717 1165 638 1239 b 381 1078 460 1239 381 1165 l 381 1075 b 439 954 381 1028 404 985 z m 549 990 b 463 1075 501 990 463 1029 l 463 1078 b 549 1163 463 1124 501 1163 b 635 1078 596 1163 635 1124 l 635 1075 b 549 990 635 1029 596 990 z m 417 407 l 546 722 l 675 407 z "},"Æ":{"ha":1451,"x_min":0,"x_max":0,"o":"m 13 0 l 231 0 l 346 218 l 672 218 l 672 0 l 1378 0 l 1378 190 l 885 190 l 885 394 l 1308 394 l 1308 585 l 885 585 l 885 782 l 1371 782 l 1371 972 l 536 972 z m 446 407 l 647 788 l 672 788 l 672 407 z "},"Ç":{"ha":1025,"x_min":0,"x_max":0,"o":"m 518 -240 l 608 -15 b 971 157 775 -7 878 57 l 835 294 b 579 181 758 225 690 181 b 297 486 413 181 297 319 l 297 489 b 579 792 297 656 415 792 b 828 682 676 792 753 750 l 964 839 b 581 989 874 928 764 989 b 74 486 282 989 74 763 l 74 483 b 453 -3 74 244 229 49 l 342 -167 z "},"È":{"ha":931,"x_min":0,"x_max":0,"o":"m 117 0 l 857 0 l 857 190 l 329 190 l 329 394 l 788 394 l 788 585 l 329 585 l 329 782 l 850 782 l 850 972 l 117 972 z m 440 1049 l 601 1049 l 444 1294 l 263 1215 z "},"É":{"ha":931,"x_min":0,"x_max":0,"o":"m 117 0 l 857 0 l 857 190 l 329 190 l 329 394 l 788 394 l 788 585 l 329 585 l 329 782 l 850 782 l 850 972 l 117 972 z m 367 1049 l 528 1049 l 706 1215 l 524 1294 z "},"Ê":{"ha":931,"x_min":0,"x_max":0,"o":"m 117 0 l 857 0 l 857 190 l 329 190 l 329 394 l 788 394 l 788 585 l 329 585 l 329 782 l 850 782 l 850 972 l 117 972 z m 210 1049 l 369 1049 l 479 1140 l 589 1049 l 751 1049 l 581 1267 l 381 1267 z "},"Ë":{"ha":931,"x_min":0,"x_max":0,"o":"m 117 0 l 857 0 l 857 190 l 329 190 l 329 394 l 788 394 l 788 585 l 329 585 l 329 782 l 850 782 l 850 972 l 117 972 z m 528 1049 l 731 1049 l 731 1236 l 528 1236 z m 231 1049 l 433 1049 l 433 1236 l 231 1236 z "},"Ì":{"ha":467,"x_min":0,"x_max":0,"o":"m 126 0 l 340 0 l 340 972 l 126 972 z m 161 1049 l 322 1049 l 165 1294 l -17 1215 z "},"Í":{"ha":467,"x_min":0,"x_max":0,"o":"m 126 0 l 340 0 l 340 972 l 126 972 z m 144 1049 l 306 1049 l 483 1215 l 301 1294 z "},"Î":{"ha":467,"x_min":0,"x_max":0,"o":"m 126 0 l 340 0 l 340 972 l 126 972 z m -37 1049 l 122 1049 l 232 1140 l 342 1049 l 504 1049 l 333 1267 l 133 1267 z "},"Ï":{"ha":467,"x_min":0,"x_max":0,"o":"m 126 0 l 340 0 l 340 972 l 126 972 z m 281 1049 l 483 1049 l 483 1236 l 281 1236 z m -17 1049 l 186 1049 l 186 1236 l -17 1236 z "},"Ð":{"ha":1128,"x_min":0,"x_max":0,"o":"m 158 0 l 538 0 b 1054 486 843 0 1054 213 b 538 972 1054 763 843 972 l 158 972 l 158 583 l 54 583 l 54 394 l 158 394 z m 369 193 l 369 394 l 581 394 l 581 583 l 369 583 l 369 779 l 538 779 b 831 486 713 779 831 658 b 538 193 831 311 713 193 z "},"Ñ":{"ha":1097,"x_min":0,"x_max":0,"o":"m 117 0 l 328 0 l 328 618 l 799 0 l 981 0 l 981 972 l 769 972 l 769 374 l 314 972 l 117 972 z m 375 1035 b 454 1103 394 1079 411 1103 b 663 1049 504 1103 576 1049 b 835 1240 760 1049 803 1124 l 722 1275 b 643 1207 703 1231 686 1207 b 435 1261 593 1207 521 1261 b 263 1069 338 1261 294 1186 z "},"Ò":{"ha":1181,"x_min":0,"x_max":0,"o":"m 589 -17 b 1107 486 889 -17 1107 210 b 592 989 1107 765 892 989 b 74 486 292 989 74 763 b 589 -17 74 207 289 -17 z m 592 181 b 297 486 419 181 297 319 b 589 792 297 656 417 792 b 883 486 761 792 883 653 b 592 181 883 317 764 181 z m 504 1049 l 665 1049 l 508 1294 l 326 1215 z "},"Ó":{"ha":1181,"x_min":0,"x_max":0,"o":"m 589 -17 b 1107 486 889 -17 1107 210 b 592 989 1107 765 892 989 b 74 486 292 989 74 763 b 589 -17 74 207 289 -17 z m 592 181 b 297 486 419 181 297 319 b 589 792 297 656 417 792 b 883 486 761 792 883 653 b 592 181 883 317 764 181 z m 515 1049 l 676 1049 l 854 1215 l 672 1294 z "},"Ô":{"ha":1181,"x_min":0,"x_max":0,"o":"m 589 -17 b 1107 486 889 -17 1107 210 b 592 989 1107 765 892 989 b 74 486 292 989 74 763 b 589 -17 74 207 289 -17 z m 592 181 b 297 486 419 181 297 319 b 589 792 297 656 417 792 b 883 486 761 792 883 653 b 592 181 883 317 764 181 z m 319 1049 l 479 1049 l 589 1140 l 699 1049 l 861 1049 l 690 1267 l 490 1267 z "},"Õ":{"ha":1181,"x_min":0,"x_max":0,"o":"m 589 -17 b 1107 486 889 -17 1107 210 b 592 989 1107 765 892 989 b 74 486 292 989 74 763 b 589 -17 74 207 289 -17 z m 592 181 b 297 486 419 181 297 319 b 589 792 297 656 417 792 b 883 486 761 792 883 653 b 592 181 883 317 764 181 z m 417 1035 b 496 1103 436 1079 453 1103 b 704 1049 546 1103 618 1049 b 876 1240 801 1049 844 1124 l 764 1275 b 685 1207 744 1231 728 1207 b 476 1261 635 1207 563 1261 b 304 1069 379 1261 336 1186 z "},"Ö":{"ha":1181,"x_min":0,"x_max":0,"o":"m 589 -17 b 1107 486 889 -17 1107 210 b 592 989 1107 765 892 989 b 74 486 292 989 74 763 b 589 -17 74 207 289 -17 z m 592 181 b 297 486 419 181 297 319 b 589 792 297 656 417 792 b 883 486 761 792 883 653 b 592 181 883 317 764 181 z m 638 1049 l 840 1049 l 840 1236 l 638 1236 z m 340 1049 l 543 1049 l 543 1236 l 340 1236 z "},"×":{"ha":889,"x_min":0,"x_max":0,"o":"m 808 260 l 581 488 l 808 715 l 671 851 l 443 625 l 217 851 l 79 715 l 307 488 l 79 260 l 217 124 l 443 350 l 671 124 z "},"Ø":{"ha":1181,"x_min":0,"x_max":0,"o":"m 589 -17 b 1107 486 889 -17 1107 210 b 982 821 1107 617 1061 733 l 1118 979 l 914 979 l 860 919 b 592 989 783 964 692 989 b 74 486 292 989 74 763 b 199 150 74 356 119 239 l 63 -7 l 267 -7 l 321 53 b 589 -17 397 8 489 -17 z m 340 315 b 293 486 310 365 293 424 b 589 796 293 657 415 796 b 726 763 640 796 686 783 z m 592 176 b 454 210 540 176 494 189 l 840 657 b 888 486 871 607 888 549 b 592 176 888 315 765 176 z "},"Ù":{"ha":1050,"x_min":0,"x_max":0,"o":"m 522 -15 b 949 424 783 -15 949 129 l 949 972 l 735 972 l 735 415 b 525 182 735 261 656 182 b 315 422 394 182 315 264 l 315 972 l 101 972 l 101 417 b 522 -15 101 131 261 -15 z m 460 1042 l 621 1042 l 464 1288 l 282 1208 z "},"Ú":{"ha":1050,"x_min":0,"x_max":0,"o":"m 522 -15 b 949 424 783 -15 949 129 l 949 972 l 735 972 l 735 415 b 525 182 735 261 656 182 b 315 422 394 182 315 264 l 315 972 l 101 972 l 101 417 b 522 -15 101 131 261 -15 z m 429 1042 l 590 1042 l 768 1208 l 586 1288 z "},"Û":{"ha":1050,"x_min":0,"x_max":0,"o":"m 522 -15 b 949 424 783 -15 949 129 l 949 972 l 735 972 l 735 415 b 525 182 735 261 656 182 b 315 422 394 182 315 264 l 315 972 l 101 972 l 101 417 b 522 -15 101 131 261 -15 z m 254 1049 l 414 1049 l 524 1140 l 633 1049 l 796 1049 l 625 1267 l 425 1267 z "},"Ü":{"ha":1050,"x_min":0,"x_max":0,"o":"m 522 -15 b 949 424 783 -15 949 129 l 949 972 l 735 972 l 735 415 b 525 182 735 261 656 182 b 315 422 394 182 315 264 l 315 972 l 101 972 l 101 417 b 522 -15 101 131 261 -15 z m 572 1049 l 775 1049 l 775 1236 l 572 1236 z m 275 1049 l 478 1049 l 478 1236 l 275 1236 z "},"Ý":{"ha":994,"x_min":0,"x_max":0,"o":"m 390 0 l 604 0 l 604 388 l 978 972 l 735 972 l 499 582 l 267 972 l 17 972 l 390 383 z m 415 1042 l 576 1042 l 754 1208 l 572 1288 z "},"Þ":{"ha":935,"x_min":0,"x_max":0,"o":"m 117 0 l 331 0 l 331 150 l 493 150 b 886 492 711 150 886 267 l 886 494 b 514 831 886 693 746 831 l 331 831 l 331 972 l 117 972 z m 331 340 l 331 638 l 496 638 b 669 490 603 638 669 586 l 669 488 b 500 340 669 404 607 340 z "},"ß":{"ha":861,"x_min":0,"x_max":0,"o":"m 415 -3 l 444 -3 b 801 276 663 -3 801 100 b 619 525 801 413 713 485 b 746 751 689 572 746 632 b 436 1024 746 906 635 1024 b 94 699 228 1024 94 904 l 94 0 l 304 0 l 304 707 b 426 846 304 792 354 846 b 538 735 494 846 538 804 b 415 560 538 656 483 603 l 415 421 b 593 286 517 407 593 361 b 415 156 593 204 529 161 z "},"à":{"ha":822,"x_min":0,"x_max":0,"o":"m 306 -14 b 531 81 408 -14 479 24 l 531 0 l 735 0 l 735 432 b 654 669 735 532 710 614 b 403 753 601 722 518 753 b 114 693 276 753 196 729 l 167 532 b 372 572 235 557 292 572 b 532 436 478 572 532 524 l 532 424 b 350 454 479 442 425 454 b 50 217 174 454 50 379 b 306 -14 50 67 165 -14 z m 369 132 b 254 222 301 132 254 165 b 400 328 254 292 310 328 b 535 300 451 328 499 317 l 535 263 b 369 132 535 186 468 132 z m 353 826 l 514 826 l 357 1072 l 175 993 z "},"á":{"ha":822,"x_min":0,"x_max":0,"o":"m 306 -14 b 531 81 408 -14 479 24 l 531 0 l 735 0 l 735 432 b 654 669 735 532 710 614 b 403 753 601 722 518 753 b 114 693 276 753 196 729 l 167 532 b 372 572 235 557 292 572 b 532 436 478 572 532 524 l 532 424 b 350 454 479 442 425 454 b 50 217 174 454 50 379 b 306 -14 50 67 165 -14 z m 369 132 b 254 222 301 132 254 165 b 400 328 254 292 310 328 b 535 300 451 328 499 317 l 535 263 b 369 132 535 186 468 132 z m 315 826 l 476 826 l 654 993 l 472 1072 z "},"â":{"ha":822,"x_min":0,"x_max":0,"o":"m 306 -14 b 531 81 408 -14 479 24 l 531 0 l 735 0 l 735 432 b 654 669 735 532 710 614 b 403 753 601 722 518 753 b 114 693 276 753 196 729 l 167 532 b 372 572 235 557 292 572 b 532 436 478 572 532 524 l 532 424 b 350 454 479 442 425 454 b 50 217 174 454 50 379 b 306 -14 50 67 165 -14 z m 369 132 b 254 222 301 132 254 165 b 400 328 254 292 310 328 b 535 300 451 328 499 317 l 535 263 b 369 132 535 186 468 132 z m 138 826 l 297 826 l 407 918 l 517 826 l 679 826 l 508 1044 l 308 1044 z "},"ã":{"ha":822,"x_min":0,"x_max":0,"o":"m 306 -14 b 531 81 408 -14 479 24 l 531 0 l 735 0 l 735 432 b 654 669 735 532 710 614 b 403 753 601 722 518 753 b 114 693 276 753 196 729 l 167 532 b 372 572 235 557 292 572 b 532 436 478 572 532 524 l 532 424 b 350 454 479 442 425 454 b 50 217 174 454 50 379 b 306 -14 50 67 165 -14 z m 369 132 b 254 222 301 132 254 165 b 400 328 254 292 310 328 b 535 300 451 328 499 317 l 535 263 b 369 132 535 186 468 132 z m 238 813 b 317 881 257 857 274 881 b 525 826 367 881 439 826 b 697 1018 622 826 665 901 l 585 1053 b 506 985 565 1008 549 985 b 297 1039 456 985 383 1039 b 125 847 200 1039 157 964 z "},"ä":{"ha":822,"x_min":0,"x_max":0,"o":"m 306 -14 b 531 81 408 -14 479 24 l 531 0 l 735 0 l 735 432 b 654 669 735 532 710 614 b 403 753 601 722 518 753 b 114 693 276 753 196 729 l 167 532 b 372 572 235 557 292 572 b 532 436 478 572 532 524 l 532 424 b 350 454 479 442 425 454 b 50 217 174 454 50 379 b 306 -14 50 67 165 -14 z m 369 132 b 254 222 301 132 254 165 b 400 328 254 292 310 328 b 535 300 451 328 499 317 l 535 263 b 369 132 535 186 468 132 z m 456 826 l 658 826 l 658 1014 l 456 1014 z m 158 826 l 361 826 l 361 1014 l 158 1014 z "},"å":{"ha":822,"x_min":0,"x_max":0,"o":"m 306 -14 b 531 81 408 -14 479 24 l 531 0 l 735 0 l 735 432 b 654 669 735 532 710 614 b 403 753 601 722 518 753 b 114 693 276 753 196 729 l 167 532 b 372 572 235 557 292 572 b 532 436 478 572 532 524 l 532 424 b 350 454 479 442 425 454 b 50 217 174 454 50 379 b 306 -14 50 67 165 -14 z m 369 132 b 254 222 301 132 254 165 b 400 328 254 292 310 328 b 535 300 451 328 499 317 l 535 263 b 369 132 535 186 468 132 z m 408 824 b 576 985 497 824 576 897 l 576 988 b 408 1149 576 1075 497 1149 b 240 988 319 1149 240 1075 l 240 985 b 408 824 240 897 319 824 z m 408 900 b 322 985 361 900 322 939 l 322 988 b 408 1072 322 1033 361 1072 b 494 988 456 1072 494 1033 l 494 985 b 408 900 494 939 456 900 z "},"æ":{"ha":1321,"x_min":0,"x_max":0,"o":"m 331 -14 b 633 96 449 -14 549 33 b 917 -17 703 25 803 -17 b 1221 122 1051 -17 1151 36 l 1100 229 b 919 153 1042 175 990 153 b 738 299 825 153 758 203 l 1256 299 b 1258 354 1257 318 1258 338 b 901 758 1258 565 1143 758 b 656 658 800 758 717 721 b 403 753 606 719 525 753 b 114 693 276 753 196 729 l 167 532 b 372 572 235 557 292 572 b 532 436 478 572 532 524 l 532 424 b 350 454 479 442 425 454 b 50 217 174 454 50 379 b 331 -14 50 69 169 -14 z m 735 431 b 896 589 751 526 808 589 b 1053 431 985 589 1040 525 z m 369 135 b 254 222 306 135 254 168 b 400 328 254 292 310 328 b 533 301 450 328 497 317 b 560 206 538 267 547 235 b 369 135 497 157 432 135 z "},"ç":{"ha":793,"x_min":0,"x_max":0,"o":"m 390 -240 l 481 -15 b 750 119 608 -7 683 47 l 626 244 b 456 165 575 196 526 165 b 267 371 340 165 267 257 l 267 374 b 447 576 267 483 342 576 b 617 494 522 576 569 544 l 746 633 b 449 758 676 711 589 758 b 58 371 221 758 58 583 l 58 368 b 328 0 58 194 167 49 l 214 -167 z "},"è":{"ha":851,"x_min":0,"x_max":0,"o":"m 447 -17 b 751 122 582 -17 682 36 l 631 229 b 450 153 572 175 521 153 b 268 299 356 153 289 203 l 786 299 b 789 354 788 318 789 338 b 426 758 789 565 675 758 b 58 371 210 758 58 583 b 447 -17 58 140 224 -17 z m 265 431 b 426 589 282 526 339 589 b 583 431 515 589 571 525 z m 347 826 l 508 826 l 351 1072 l 169 993 z "},"é":{"ha":851,"x_min":0,"x_max":0,"o":"m 447 -17 b 751 122 582 -17 682 36 l 631 229 b 450 153 572 175 521 153 b 268 299 356 153 289 203 l 786 299 b 789 354 788 318 789 338 b 426 758 789 565 675 758 b 58 371 210 758 58 583 b 447 -17 58 140 224 -17 z m 265 431 b 426 589 282 526 339 589 b 583 431 515 589 571 525 z m 342 826 l 503 826 l 681 993 l 499 1072 z "},"ê":{"ha":851,"x_min":0,"x_max":0,"o":"m 447 -17 b 751 122 582 -17 682 36 l 631 229 b 450 153 572 175 521 153 b 268 299 356 153 289 203 l 786 299 b 789 354 788 318 789 338 b 426 758 789 565 675 758 b 58 371 210 758 58 583 b 447 -17 58 140 224 -17 z m 265 431 b 426 589 282 526 339 589 b 583 431 515 589 571 525 z m 154 826 l 314 826 l 424 918 l 533 826 l 696 826 l 525 1044 l 325 1044 z "},"ë":{"ha":851,"x_min":0,"x_max":0,"o":"m 447 -17 b 751 122 582 -17 682 36 l 631 229 b 450 153 572 175 521 153 b 268 299 356 153 289 203 l 786 299 b 789 354 788 318 789 338 b 426 758 789 565 675 758 b 58 371 210 758 58 583 b 447 -17 58 140 224 -17 z m 265 431 b 426 589 282 526 339 589 b 583 431 515 589 571 525 z m 472 826 l 675 826 l 675 1014 l 472 1014 z m 175 826 l 378 826 l 378 1014 l 175 1014 z "},"ì":{"ha":419,"x_min":0,"x_max":0,"o":"m 104 0 l 315 0 l 315 744 l 104 744 z m 140 826 l 301 826 l 144 1072 l -37 993 z "},"í":{"ha":419,"x_min":0,"x_max":0,"o":"m 104 0 l 315 0 l 315 744 l 104 744 z m 118 826 l 279 826 l 457 993 l 275 1072 z "},"î":{"ha":419,"x_min":0,"x_max":0,"o":"m 104 0 l 315 0 l 315 744 l 104 744 z m -61 826 l 99 826 l 208 918 l 318 826 l 481 826 l 310 1044 l 110 1044 z "},"ï":{"ha":419,"x_min":0,"x_max":0,"o":"m 104 0 l 315 0 l 315 744 l 104 744 z m 257 826 l 460 826 l 460 1014 l 257 1014 z m -40 826 l 163 826 l 163 1014 l -40 1014 z "},"ð":{"ha":900,"x_min":0,"x_max":0,"o":"m 443 -17 b 839 364 693 -17 839 158 b 717 704 839 485 804 581 l 604 864 l 746 921 l 669 1025 l 531 968 l 499 1014 l 261 1014 l 350 894 l 190 831 l 268 726 l 426 792 l 547 631 b 376 675 488 663 440 675 b 58 350 190 675 58 543 b 443 -17 58 143 221 -17 z m 450 161 b 264 343 339 161 264 242 b 449 525 264 449 336 525 b 633 346 561 525 633 444 b 450 161 633 242 564 161 z "},"ñ":{"ha":865,"x_min":0,"x_max":0,"o":"m 94 0 l 306 0 l 306 415 b 438 567 306 515 357 567 b 565 415 518 567 565 515 l 565 0 l 776 0 l 776 482 b 524 758 776 653 683 758 b 306 639 417 758 354 701 l 306 744 l 94 744 z m 265 813 b 344 881 285 857 301 881 b 553 826 394 881 467 826 b 725 1018 650 826 693 901 l 613 1053 b 533 985 593 1008 576 985 b 325 1039 483 985 411 1039 b 153 847 228 1039 185 964 z "},"ò":{"ha":922,"x_min":0,"x_max":0,"o":"m 460 -17 b 864 371 692 -17 864 157 b 463 758 864 588 693 758 b 58 371 231 758 58 585 b 460 -17 58 154 229 -17 z m 463 165 b 267 371 346 165 267 261 b 460 576 267 483 339 576 b 656 371 576 576 656 481 b 463 165 656 258 583 165 z m 381 826 l 542 826 l 385 1072 l 203 993 z "},"ó":{"ha":922,"x_min":0,"x_max":0,"o":"m 460 -17 b 864 371 692 -17 864 157 b 463 758 864 588 693 758 b 58 371 231 758 58 585 b 460 -17 58 154 229 -17 z m 463 165 b 267 371 346 165 267 261 b 460 576 267 483 339 576 b 656 371 576 576 656 481 b 463 165 656 258 583 165 z m 381 826 l 542 826 l 719 993 l 538 1072 z "},"ô":{"ha":922,"x_min":0,"x_max":0,"o":"m 460 -17 b 864 371 692 -17 864 157 b 463 758 864 588 693 758 b 58 371 231 758 58 585 b 460 -17 58 154 229 -17 z m 463 165 b 267 371 346 165 267 261 b 460 576 267 483 339 576 b 656 371 576 576 656 481 b 463 165 656 258 583 165 z m 190 826 l 350 826 l 460 918 l 569 826 l 732 826 l 561 1044 l 361 1044 z "},"õ":{"ha":922,"x_min":0,"x_max":0,"o":"m 460 -17 b 864 371 692 -17 864 157 b 463 758 864 588 693 758 b 58 371 231 758 58 585 b 460 -17 58 154 229 -17 z m 463 165 b 267 371 346 165 267 261 b 460 576 267 483 339 576 b 656 371 576 576 656 481 b 463 165 656 258 583 165 z m 288 813 b 367 881 307 857 324 881 b 575 826 417 881 489 826 b 747 1018 672 826 715 901 l 635 1053 b 556 985 615 1008 599 985 b 347 1039 506 985 433 1039 b 175 847 250 1039 207 964 z "},"ö":{"ha":922,"x_min":0,"x_max":0,"o":"m 460 -17 b 864 371 692 -17 864 157 b 463 758 864 588 693 758 b 58 371 231 758 58 585 b 460 -17 58 154 229 -17 z m 463 165 b 267 371 346 165 267 261 b 460 576 267 483 339 576 b 656 371 576 576 656 481 b 463 165 656 258 583 165 z m 508 826 l 711 826 l 711 1014 l 508 1014 z m 211 826 l 414 826 l 414 1014 l 211 1014 z "},"÷":{"ha":889,"x_min":0,"x_max":0,"o":"m 110 397 l 778 397 l 778 588 l 110 588 z m 336 694 l 543 694 l 543 904 l 336 904 z m 336 81 l 543 81 l 543 290 l 336 290 z "},"ø":{"ha":922,"x_min":0,"x_max":0,"o":"m 460 -17 b 864 371 692 -17 864 157 b 772 622 864 469 831 556 b 885 751 831 689 885 751 l 700 751 l 661 710 b 463 758 604 740 536 758 b 58 371 231 758 58 585 b 149 121 58 274 92 188 l 38 -7 l 222 -7 l 260 32 b 460 -17 318 1 386 -17 z m 283 274 b 261 371 269 303 261 336 b 460 582 261 486 335 582 b 539 565 489 582 515 576 z m 463 160 b 383 175 433 160 407 165 l 639 468 b 661 371 653 439 661 406 b 463 160 661 256 588 160 z "},"ù":{"ha":865,"x_min":0,"x_max":0,"o":"m 342 -14 b 560 106 449 -14 511 43 l 560 0 l 771 0 l 771 744 l 560 744 l 560 329 b 428 178 560 229 508 178 b 300 329 347 178 300 229 l 300 744 l 89 744 l 89 263 b 342 -14 89 92 182 -14 z m 374 826 l 535 826 l 378 1072 l 196 993 z "},"ú":{"ha":865,"x_min":0,"x_max":0,"o":"m 342 -14 b 560 106 449 -14 511 43 l 560 0 l 771 0 l 771 744 l 560 744 l 560 329 b 428 178 560 229 508 178 b 300 329 347 178 300 229 l 300 744 l 89 744 l 89 263 b 342 -14 89 92 182 -14 z m 329 826 l 490 826 l 668 993 l 486 1072 z "},"û":{"ha":865,"x_min":0,"x_max":0,"o":"m 342 -14 b 560 106 449 -14 511 43 l 560 0 l 771 0 l 771 744 l 560 744 l 560 329 b 428 178 560 229 508 178 b 300 329 347 178 300 229 l 300 744 l 89 744 l 89 263 b 342 -14 89 92 182 -14 z m 161 826 l 321 826 l 431 918 l 540 826 l 703 826 l 532 1044 l 332 1044 z "},"ü":{"ha":865,"x_min":0,"x_max":0,"o":"m 342 -14 b 560 106 449 -14 511 43 l 560 0 l 771 0 l 771 744 l 560 744 l 560 329 b 428 178 560 229 508 178 b 300 329 347 178 300 229 l 300 744 l 89 744 l 89 263 b 342 -14 89 92 182 -14 z m 479 826 l 682 826 l 682 1014 l 479 1014 z m 182 826 l 385 826 l 385 1014 l 182 1014 z "},"ý":{"ha":833,"x_min":0,"x_max":0,"o":"m 272 -226 b 517 -18 399 -226 460 -169 l 803 744 l 583 744 l 421 238 l 251 744 l 28 744 l 319 -3 b 246 -51 301 -40 282 -51 b 156 -22 218 -51 183 -39 l 85 -175 b 272 -226 139 -207 196 -226 z m 318 826 l 479 826 l 657 993 l 475 1072 z "},"þ":{"ha":938,"x_min":0,"x_max":0,"o":"m 94 -222 l 306 -222 l 306 97 b 538 -14 356 38 425 -14 b 876 371 714 -14 876 122 l 876 374 b 538 758 876 622 711 758 b 306 638 428 758 357 707 l 306 1014 l 94 1014 z m 483 165 b 303 371 385 165 303 247 l 303 374 b 483 579 303 497 385 579 b 665 374 582 579 665 497 l 665 371 b 483 165 665 246 582 165 z "},"ÿ":{"ha":833,"x_min":0,"x_max":0,"o":"m 272 -226 b 517 -18 399 -226 460 -169 l 803 744 l 583 744 l 421 238 l 251 744 l 28 744 l 319 -3 b 246 -51 301 -40 282 -51 b 156 -22 218 -51 183 -39 l 85 -175 b 272 -226 139 -207 196 -226 z m 464 826 l 667 826 l 667 1014 l 464 1014 z m 167 826 l 369 826 l 369 1014 l 167 1014 z "},"ı":{"ha":419,"x_min":0,"x_max":0,"o":"m 104 0 l 315 0 l 315 744 l 104 744 z "},"Ł":{"ha":901,"x_min":0,"x_max":0,"o":"m 158 0 l 857 0 l 857 194 l 369 194 l 369 428 l 636 507 l 636 706 l 369 626 l 369 972 l 158 972 l 158 563 l 54 532 l 54 333 l 158 364 z "},"ł":{"ha":503,"x_min":0,"x_max":0,"o":"m 147 0 l 356 0 l 356 450 l 461 482 l 461 681 l 356 649 l 356 1014 l 147 1014 l 147 588 l 42 556 l 42 357 l 147 389 z "},"Œ":{"ha":1493,"x_min":0,"x_max":0,"o":"m 590 0 l 1419 0 l 1419 190 l 926 190 l 926 394 l 1350 394 l 1350 585 l 926 585 l 926 782 l 1413 782 l 1413 972 l 590 972 b 74 486 285 972 74 760 b 590 0 74 210 285 0 z m 590 193 b 297 486 415 193 297 314 b 590 779 297 661 415 779 l 714 779 l 714 193 z "},"œ":{"ha":1435,"x_min":0,"x_max":0,"o":"m 447 -17 b 733 110 564 -17 665 32 b 1031 -17 804 31 908 -17 b 1335 122 1165 -17 1265 36 l 1214 229 b 1033 153 1156 175 1104 153 b 851 299 939 153 872 203 l 1369 299 b 1372 354 1371 318 1372 338 b 1010 758 1372 565 1258 758 b 736 635 897 758 801 711 b 456 758 669 711 571 758 b 58 371 235 758 58 585 b 447 -17 58 154 235 -17 z m 849 431 b 1010 589 865 526 922 589 b 1167 431 1099 589 1154 525 z m 456 165 b 267 371 343 165 267 261 b 453 576 267 481 336 576 b 642 371 565 576 642 481 b 456 165 642 258 572 165 z "},"Š":{"ha":889,"x_min":0,"x_max":0,"o":"m 463 -14 b 819 288 672 -14 819 94 b 511 582 819 460 708 531 b 301 710 343 625 301 646 b 426 797 301 760 344 797 b 679 701 508 797 593 761 l 790 863 b 429 986 692 942 571 986 b 89 693 231 986 89 869 b 411 393 89 497 215 443 b 607 269 574 351 607 324 b 467 175 607 210 554 175 b 176 293 356 175 264 221 l 50 142 b 463 -14 167 38 315 -14 z m 340 1049 l 540 1049 l 711 1267 l 551 1267 l 442 1175 l 332 1267 l 169 1267 z "},"š":{"ha":697,"x_min":0,"x_max":0,"o":"m 356 -14 b 640 226 517 -14 640 61 b 415 450 640 365 519 415 b 264 539 335 478 264 497 b 342 593 264 571 290 593 b 543 524 396 593 469 567 l 624 669 b 346 756 543 724 440 756 b 74 519 196 756 74 671 b 296 293 74 372 192 324 b 450 207 378 268 450 253 b 361 149 450 171 422 149 b 126 238 292 149 207 179 l 36 99 b 356 -14 135 21 251 -14 z m 254 826 l 454 826 l 625 1044 l 465 1044 l 356 953 l 246 1044 l 83 1044 z "},"Ÿ":{"ha":994,"x_min":0,"x_max":0,"o":"m 390 0 l 604 0 l 604 388 l 978 972 l 735 972 l 499 582 l 267 972 l 17 972 l 390 383 z m 544 1049 l 747 1049 l 747 1236 l 544 1236 z m 247 1049 l 450 1049 l 450 1236 l 247 1236 z "},"Ž":{"ha":983,"x_min":0,"x_max":0,"o":"m 88 0 l 897 0 l 897 188 l 363 188 l 897 810 l 897 972 l 104 972 l 104 785 l 622 785 l 88 163 z m 396 1049 l 596 1049 l 767 1267 l 607 1267 l 497 1175 l 388 1267 l 225 1267 z "},"ž":{"ha":782,"x_min":0,"x_max":0,"o":"m 69 0 l 717 0 l 717 171 l 331 171 l 717 596 l 717 744 l 82 744 l 82 574 l 454 574 l 69 149 z m 301 826 l 501 826 l 672 1044 l 513 1044 l 403 953 l 293 1044 l 131 1044 z "},"ƒ":{"ha":744,"x_min":0,"x_max":0,"o":"m 139 -7 b 410 218 299 -7 381 54 l 456 478 l 646 478 l 646 651 l 486 651 l 496 707 b 600 801 507 772 539 801 b 694 788 629 801 661 796 l 694 963 b 557 979 660 974 613 979 b 294 754 390 979 321 896 l 275 651 l 151 651 l 151 478 l 244 478 l 206 251 b 108 167 194 190 167 167 b 57 171 93 167 75 168 l 57 0 b 139 -7 82 -6 104 -7 z "},"ˆ":{"ha":694,"x_min":0,"x_max":0,"o":"m 76 826 l 236 826 l 346 918 l 456 826 l 618 826 l 447 1044 l 247 1044 z "},"ˇ":{"ha":694,"x_min":0,"x_max":0,"o":"m 247 826 l 447 826 l 618 1044 l 458 1044 l 349 953 l 239 1044 l 76 1044 z "},"˘":{"ha":694,"x_min":0,"x_max":0,"o":"m 347 824 b 608 1044 494 824 596 904 l 467 1044 b 347 961 450 994 417 961 b 228 1044 278 961 244 994 l 86 1044 b 347 824 99 904 200 824 z "},"˙":{"ha":694,"x_min":0,"x_max":0,"o":"m 243 826 l 451 826 l 451 1014 l 243 1014 z "},"˚":{"ha":694,"x_min":0,"x_max":0,"o":"m 347 824 b 515 985 436 824 515 897 l 515 988 b 347 1149 515 1075 436 1149 b 179 988 258 1149 179 1075 l 179 985 b 347 824 179 897 258 824 z m 347 900 b 261 985 300 900 261 939 l 261 988 b 347 1072 261 1033 300 1072 b 433 988 394 1072 433 1033 l 433 985 b 347 900 433 939 394 900 z "},"˛":{"ha":694,"x_min":0,"x_max":0,"o":"m 515 -228 l 515 -135 b 396 -40 428 -129 396 -97 b 404 14 396 -24 399 -6 l 260 14 b 238 -76 247 -12 238 -46 b 515 -228 238 -187 339 -242 z "},"˜":{"ha":694,"x_min":0,"x_max":0,"o":"m 174 813 b 253 881 193 857 210 881 b 461 826 303 881 375 826 b 633 1018 558 826 601 901 l 521 1053 b 442 985 501 1008 485 985 b 233 1039 392 985 319 1039 b 61 847 136 1039 93 964 z "},"˝":{"ha":694,"x_min":0,"x_max":0,"o":"m 321 826 l 475 826 l 656 993 l 478 1072 z m 50 826 l 204 826 l 382 993 l 204 1072 z "},"Ω":{"ha":1089,"x_min":0,"x_max":0,"o":"m 1003 0 l 1003 175 l 761 175 l 761 213 b 1003 567 924 251 1003 410 b 549 989 1003 831 799 989 b 86 564 296 989 86 829 b 328 213 86 406 168 257 l 328 175 l 86 175 l 86 0 l 488 0 l 488 289 b 304 540 363 315 304 417 b 549 807 304 685 396 807 b 788 546 699 807 788 688 b 601 289 788 421 728 317 l 601 0 z "},"π":{"ha":694,"x_min":0,"x_max":0,"o":"m 0 0 l 694 0 l 694 972 l 0 972 z m 113 68 l 347 422 l 583 68 z m 68 133 l 68 839 l 306 486 z m 625 133 l 388 486 l 625 839 z m 347 549 l 113 903 l 583 903 z "},"Ё":{"ha":931,"x_min":0,"x_max":0,"o":"m 117 0 l 857 0 l 857 190 l 329 190 l 329 394 l 788 394 l 788 585 l 329 585 l 329 782 l 850 782 l 850 972 l 117 972 z m 526 1049 l 729 1049 l 729 1236 l 526 1236 z m 229 1049 l 432 1049 l 432 1236 l 229 1236 z "},"Ђ":{"ha":1206,"x_min":0,"x_max":0,"o":"m 635 8 b 785 -15 663 -3 725 -15 b 1118 318 978 -15 1118 92 b 785 639 1118 524 978 639 b 521 560 686 639 596 608 l 521 783 l 868 783 l 868 972 l 44 972 l 44 783 l 308 783 l 308 0 l 521 0 l 521 354 b 731 432 572 401 644 432 b 897 314 835 432 897 397 b 733 193 897 221 828 193 b 672 199 713 193 690 196 z "},"Ѓ":{"ha":831,"x_min":0,"x_max":0,"o":"m 331 779 l 796 779 l 796 972 l 117 972 l 117 0 l 331 0 z m 301 1049 l 463 1049 l 640 1215 l 458 1294 z "},"Є":{"ha":1018,"x_min":0,"x_max":0,"o":"m 701 579 l 304 579 b 579 797 339 706 444 797 b 833 694 676 797 760 760 l 951 842 b 581 989 864 924 756 989 b 74 486 282 989 74 763 b 572 -17 74 204 286 -17 b 978 147 760 -17 878 40 l 846 290 b 579 175 768 219 693 175 b 303 401 439 175 335 271 l 701 401 z "},"Ѕ":{"ha":889,"x_min":0,"x_max":0,"o":"m 463 -14 b 819 288 672 -14 819 94 b 511 582 819 460 708 531 b 301 710 343 625 301 646 b 426 797 301 760 344 797 b 679 701 508 797 593 761 l 790 863 b 429 986 692 942 571 986 b 89 693 231 986 89 869 b 411 393 89 497 215 443 b 607 269 574 351 607 324 b 467 175 607 210 554 175 b 176 293 356 175 264 221 l 50 142 b 463 -14 167 38 315 -14 z "},"І":{"ha":467,"x_min":0,"x_max":0,"o":"m 126 0 l 340 0 l 340 972 l 126 972 z "},"Ї":{"ha":467,"x_min":0,"x_max":0,"o":"m 126 0 l 340 0 l 340 972 l 126 972 z m 281 1049 l 483 1049 l 483 1236 l 281 1236 z m -17 1049 l 186 1049 l 186 1236 l -17 1236 z "},"Ј":{"ha":783,"x_min":0,"x_max":0,"o":"m 338 -14 b 590 76 443 -14 531 17 b 682 336 649 135 682 221 l 682 972 l 463 972 l 463 346 b 332 185 463 233 413 185 b 154 282 264 185 210 221 l 19 132 b 338 -14 86 53 186 -14 z "},"Љ":{"ha":1550,"x_min":0,"x_max":0,"o":"m 726 0 l 1133 0 b 1503 326 1361 0 1503 126 b 1147 642 1503 517 1372 642 l 940 642 l 940 972 l 246 972 l 246 771 b 65 174 246 247 181 174 b 32 176 50 174 42 175 l 18 0 b 131 -12 44 -7 96 -12 b 446 706 353 -12 446 147 l 446 779 l 726 779 z m 1129 458 b 1290 329 1236 458 1290 411 b 1131 193 1290 239 1236 193 l 940 193 l 940 458 z "},"Њ":{"ha":1549,"x_min":0,"x_max":0,"o":"m 1139 0 b 1501 308 1364 0 1501 110 b 1160 610 1501 490 1379 610 l 939 610 l 939 972 l 725 972 l 725 610 l 331 610 l 331 972 l 117 972 l 117 0 l 331 0 l 331 432 l 725 432 l 725 0 z m 1138 432 b 1288 317 1239 432 1288 392 b 1139 193 1288 232 1239 193 l 939 193 l 939 432 z "},"Ћ":{"ha":1206,"x_min":0,"x_max":0,"o":"m 521 354 b 740 432 583 411 654 432 b 906 242 850 432 906 363 l 906 0 l 1118 0 l 1118 332 b 785 639 1118 531 978 639 b 521 560 686 639 596 608 l 521 783 l 868 783 l 868 972 l 44 972 l 44 783 l 308 783 l 308 0 l 521 0 z "},"Ќ":{"ha":1014,"x_min":0,"x_max":0,"o":"m 117 0 l 331 0 l 331 297 l 443 414 l 744 0 l 1001 0 l 588 560 l 983 972 l 725 972 l 331 547 l 331 972 l 117 972 z m 421 1049 l 582 1049 l 760 1215 l 578 1294 z "},"Ў":{"ha":1019,"x_min":0,"x_max":0,"o":"m 528 458 l 264 972 l 25 972 l 414 244 b 292 167 375 185 331 167 b 176 199 254 167 215 175 l 93 42 b 303 -15 154 7 219 -15 b 621 221 439 -15 536 51 l 994 972 l 763 972 z m 525 1046 b 758 1257 653 1046 739 1124 l 635 1279 b 525 1186 617 1222 583 1186 b 415 1279 467 1186 433 1222 l 292 1257 b 525 1046 311 1124 397 1046 z "},"Џ":{"ha":1044,"x_min":0,"x_max":0,"o":"m 117 0 l 418 0 l 418 -203 l 625 -203 l 625 0 l 928 0 l 928 972 l 715 972 l 715 194 l 329 194 l 329 972 l 117 972 z "},"А":{"ha":1097,"x_min":0,"x_max":0,"o":"m 33 0 l 251 0 l 340 218 l 751 218 l 840 0 l 1064 0 l 647 979 l 450 979 z m 417 407 l 546 722 l 675 407 z "},"Б":{"ha":989,"x_min":0,"x_max":0,"o":"m 331 779 l 863 779 l 863 972 l 117 972 l 117 0 l 567 0 b 929 308 792 0 929 110 b 588 610 929 490 807 610 l 331 610 z m 565 432 b 715 317 667 432 715 392 b 567 193 715 232 667 193 l 331 193 l 331 432 z "},"В":{"ha":1003,"x_min":0,"x_max":0,"o":"m 117 0 l 579 0 b 943 267 799 0 943 89 b 761 508 943 400 874 465 b 889 718 831 547 889 608 b 822 886 889 788 867 842 b 568 972 767 942 679 972 l 117 972 z m 325 579 l 325 785 l 536 785 b 676 685 626 785 676 749 b 522 579 676 610 617 579 z m 325 188 l 325 401 l 572 401 b 731 296 682 401 731 361 b 579 188 731 221 674 188 z "},"Г":{"ha":831,"x_min":0,"x_max":0,"o":"m 331 779 l 796 779 l 796 972 l 117 972 l 117 0 l 331 0 z "},"Д":{"ha":1069,"x_min":0,"x_max":0,"o":"m 14 -203 l 207 -203 l 221 0 l 829 0 l 829 -203 l 1008 -203 l 1036 193 l 919 193 l 919 972 l 213 972 l 213 858 b 106 193 213 526 178 361 l 14 193 z m 706 779 l 706 193 l 331 193 b 418 681 386 328 418 475 l 418 779 z "},"Е":{"ha":931,"x_min":0,"x_max":0,"o":"m 117 0 l 857 0 l 857 190 l 329 190 l 329 394 l 788 394 l 788 585 l 329 585 l 329 782 l 850 782 l 850 972 l 117 972 z "},"Ж":{"ha":1554,"x_min":0,"x_max":0,"o":"m 883 0 l 883 258 l 1011 397 l 1286 0 l 1542 0 l 1157 551 l 1528 972 l 1274 972 l 883 518 l 883 972 l 671 972 l 671 518 l 281 972 l 26 972 l 397 551 l 13 0 l 268 0 l 542 397 l 671 258 l 671 0 z "},"З":{"ha":908,"x_min":0,"x_max":0,"o":"m 463 989 b 71 829 278 989 161 924 l 183 693 b 446 800 249 760 326 800 b 603 692 539 800 603 760 b 429 579 603 618 542 579 l 319 579 l 319 401 l 432 401 b 625 288 543 401 625 368 b 461 171 625 213 551 171 b 151 294 335 171 231 217 l 38 146 b 469 -17 142 40 265 -17 b 839 275 696 -17 839 107 b 657 504 839 399 761 471 b 814 728 743 542 814 607 b 463 989 814 879 671 989 z "},"И":{"ha":1071,"x_min":0,"x_max":0,"o":"m 954 972 l 756 972 l 328 335 l 328 972 l 117 972 l 117 0 l 318 0 l 743 638 l 743 0 l 954 0 z "},"Й":{"ha":1071,"x_min":0,"x_max":0,"o":"m 954 972 l 756 972 l 328 335 l 328 972 l 117 972 l 117 0 l 318 0 l 743 638 l 743 0 l 954 0 z m 539 1046 b 772 1257 667 1046 753 1124 l 649 1279 b 539 1186 631 1222 597 1186 b 429 1279 481 1186 447 1222 l 306 1257 b 539 1046 325 1124 411 1046 z "},"К":{"ha":1014,"x_min":0,"x_max":0,"o":"m 117 0 l 331 0 l 331 297 l 443 414 l 744 0 l 1001 0 l 588 560 l 983 972 l 725 972 l 331 547 l 331 972 l 117 972 z "},"Л":{"ha":1057,"x_min":0,"x_max":0,"o":"m 246 972 l 246 771 b 65 174 246 247 181 174 b 32 176 51 174 42 175 l 18 0 b 131 -12 44 -7 96 -12 b 446 706 353 -12 446 133 l 446 779 l 726 779 l 726 0 l 940 0 l 940 972 z "},"М":{"ha":1206,"x_min":0,"x_max":0,"o":"m 117 0 l 326 0 l 326 631 l 597 219 l 603 219 l 876 635 l 876 0 l 1089 0 l 1089 972 l 858 972 l 603 561 l 347 972 l 117 972 z "},"Н":{"ha":1056,"x_min":0,"x_max":0,"o":"m 117 0 l 331 0 l 331 390 l 725 390 l 725 0 l 939 0 l 939 972 l 725 972 l 725 588 l 331 588 l 331 972 l 117 972 z "},"О":{"ha":1181,"x_min":0,"x_max":0,"o":"m 589 -17 b 1107 486 889 -17 1107 210 b 592 989 1107 765 892 989 b 74 486 292 989 74 763 b 589 -17 74 207 289 -17 z m 592 181 b 297 486 419 181 297 319 b 589 792 297 656 417 792 b 883 486 761 792 883 653 b 592 181 883 317 764 181 z "},"П":{"ha":1044,"x_min":0,"x_max":0,"o":"m 117 0 l 331 0 l 331 779 l 714 779 l 714 0 l 928 0 l 928 972 l 117 972 z "},"Р":{"ha":928,"x_min":0,"x_max":0,"o":"m 117 0 l 331 0 l 331 292 l 493 292 b 886 633 711 292 886 408 b 514 972 886 835 746 972 l 117 972 z m 331 482 l 331 779 l 496 779 b 669 632 603 779 669 728 b 500 482 669 546 607 482 z "},"С":{"ha":1025,"x_min":0,"x_max":0,"o":"m 572 -17 b 971 149 760 -17 871 42 l 835 294 b 579 181 758 225 690 181 b 297 486 413 181 297 319 b 579 792 297 656 415 792 b 829 683 690 792 754 751 l 957 831 b 581 989 867 919 764 989 b 74 486 282 989 74 763 b 572 -17 74 204 286 -17 z "},"Т":{"ha":900,"x_min":0,"x_max":0,"o":"m 343 0 l 557 0 l 557 775 l 853 775 l 853 972 l 47 972 l 47 775 l 343 775 z "},"У":{"ha":1019,"x_min":0,"x_max":0,"o":"m 528 458 l 264 972 l 25 972 l 414 244 b 292 167 375 185 331 167 b 176 199 254 167 215 175 l 93 42 b 303 -15 154 7 219 -15 b 621 221 439 -15 536 51 l 994 972 l 763 972 z "},"Ф":{"ha":1294,"x_min":0,"x_max":0,"o":"m 754 731 b 1015 494 911 731 1015 638 b 754 257 1015 349 911 257 z m 754 -39 l 754 67 b 1236 497 1054 67 1236 253 b 754 921 1236 742 1051 921 l 754 1010 l 540 1010 l 540 921 b 58 499 242 921 58 742 b 540 67 58 253 240 67 l 540 -39 z m 540 257 b 278 494 383 257 278 349 b 540 731 278 638 383 731 z "},"Х":{"ha":1017,"x_min":0,"x_max":0,"o":"m 43 0 l 286 0 l 506 333 l 724 0 l 974 0 l 635 497 l 960 972 l 717 972 l 511 657 l 307 972 l 57 972 l 382 494 z "},"Ц":{"ha":1076,"x_min":0,"x_max":0,"o":"m 838 -203 l 1015 -203 l 1043 193 l 928 193 l 928 972 l 714 972 l 714 193 l 331 193 l 331 972 l 117 972 l 117 0 l 838 0 z "},"Ч":{"ha":1011,"x_min":0,"x_max":0,"o":"m 681 0 l 894 0 l 894 972 l 681 972 l 681 553 b 468 490 636 518 554 490 b 311 679 358 490 311 558 l 311 972 l 97 972 l 97 617 b 424 290 97 392 231 290 b 681 363 522 290 615 331 z "},"Ш":{"ha":1568,"x_min":0,"x_max":0,"o":"m 1451 972 l 1238 972 l 1238 193 l 890 193 l 890 972 l 676 972 l 676 193 l 331 193 l 331 972 l 117 972 l 117 0 l 1451 0 z "},"Щ":{"ha":1600,"x_min":0,"x_max":0,"o":"m 1361 -203 l 1539 -203 l 1567 193 l 1451 193 l 1451 972 l 1238 972 l 1238 193 l 890 193 l 890 972 l 676 972 l 676 193 l 331 193 l 331 972 l 117 972 l 117 0 l 1361 0 z "},"Ъ":{"ha":1097,"x_min":0,"x_max":0,"o":"m 676 458 b 838 329 783 458 838 411 b 678 193 838 239 783 193 l 488 193 l 488 458 z m 488 972 l 42 972 l 42 779 l 274 779 l 274 0 l 681 0 b 1050 326 908 0 1050 126 b 694 642 1050 517 919 642 l 488 642 z "},"Ы":{"ha":1332,"x_min":0,"x_max":0,"o":"m 117 0 l 524 0 b 893 326 751 0 893 126 b 538 642 893 517 763 642 l 331 642 l 331 972 l 117 972 z m 519 458 b 681 329 626 458 681 411 b 521 193 681 239 626 193 l 331 193 l 331 458 z m 1001 0 l 1215 0 l 1215 972 l 1001 972 z "},"Ь":{"ha":940,"x_min":0,"x_max":0,"o":"m 117 0 l 524 0 b 893 326 751 0 893 126 b 538 642 893 517 763 642 l 331 642 l 331 972 l 117 972 z m 519 458 b 681 329 626 458 681 411 b 521 193 681 239 626 193 l 331 193 l 331 458 z "},"Э":{"ha":1018,"x_min":0,"x_max":0,"o":"m 317 401 l 715 401 b 439 175 683 271 579 175 b 172 290 325 175 250 219 l 40 147 b 446 -17 140 40 258 -17 b 944 486 732 -17 944 204 b 438 989 944 763 736 989 b 67 842 263 989 154 924 l 185 694 b 439 797 258 760 342 797 b 714 579 574 797 679 706 l 317 579 z "},"Ю":{"ha":1479,"x_min":0,"x_max":0,"o":"m 931 -17 b 1406 486 1210 -17 1406 207 b 933 989 1406 768 1211 989 b 465 585 688 989 506 815 l 331 585 l 331 972 l 117 972 l 117 0 l 331 0 l 331 393 l 464 393 b 931 -17 501 157 682 -17 z m 933 178 b 679 486 782 178 679 314 b 931 793 679 661 781 793 b 1185 486 1081 793 1185 657 b 933 178 1185 311 1083 178 z "},"Я":{"ha":1004,"x_min":0,"x_max":0,"o":"m 886 972 l 442 972 b 75 651 214 972 75 853 b 283 347 75 492 160 393 l 46 0 l 296 0 l 504 311 l 672 311 l 672 0 l 886 0 z m 456 500 b 292 638 351 500 292 556 b 460 779 292 732 356 779 l 672 779 l 672 500 z "},"а":{"ha":822,"x_min":0,"x_max":0,"o":"m 306 -14 b 531 81 408 -14 479 24 l 531 0 l 735 0 l 735 432 b 654 669 735 532 710 614 b 403 753 601 722 518 753 b 114 693 276 753 196 729 l 167 532 b 372 572 235 557 292 572 b 532 436 478 572 532 524 l 532 424 b 350 454 479 442 425 454 b 50 217 174 454 50 379 b 306 -14 50 67 165 -14 z m 369 132 b 254 222 301 132 254 165 b 400 328 254 292 310 328 b 535 300 451 328 499 317 l 535 263 b 369 132 535 186 468 132 z "},"б":{"ha":908,"x_min":0,"x_max":0,"o":"m 465 165 b 283 357 361 165 283 251 b 463 551 283 465 356 551 b 644 357 567 551 644 464 b 465 165 644 250 574 165 z m 463 -17 b 853 360 689 -17 853 154 b 500 717 853 564 689 717 b 229 592 347 717 257 640 b 410 767 235 663 272 739 l 818 847 l 785 1014 l 386 940 b 74 428 107 889 74 651 b 463 -17 74 142 211 -17 z "},"в":{"ha":833,"x_min":0,"x_max":0,"o":"m 94 744 l 94 0 l 501 0 b 779 203 674 0 779 76 b 633 390 779 307 724 363 b 751 558 697 418 751 468 b 503 744 751 675 653 744 z m 303 446 l 303 589 l 454 589 b 540 521 515 589 540 557 b 451 446 540 478 511 446 z m 303 165 l 303 313 l 464 313 b 565 240 536 313 565 281 b 469 165 565 196 535 165 z "},"г":{"ha":658,"x_min":0,"x_max":0,"o":"m 638 564 l 638 744 l 94 744 l 94 0 l 306 0 l 306 564 z "},"д":{"ha":896,"x_min":0,"x_max":0,"o":"m 308 181 b 364 547 354 290 363 421 l 364 564 l 563 564 l 563 181 z m 672 0 l 672 -175 l 850 -175 l 875 181 l 774 181 l 774 744 l 165 744 l 165 681 b 93 181 165 501 156 314 l 13 181 l 13 -175 l 190 -175 l 206 0 z "},"е":{"ha":851,"x_min":0,"x_max":0,"o":"m 447 -17 b 751 122 582 -17 682 36 l 631 229 b 450 153 572 175 521 153 b 268 299 356 153 289 203 l 786 299 b 789 354 788 318 789 338 b 426 758 789 565 675 758 b 58 371 210 758 58 583 b 447 -17 58 140 224 -17 z m 265 431 b 426 589 282 526 339 589 b 583 431 515 589 571 525 z "},"ж":{"ha":1238,"x_min":0,"x_max":0,"o":"m 725 0 l 725 193 l 814 297 l 1003 0 l 1238 0 l 957 436 l 1231 744 l 986 744 l 725 428 l 725 744 l 513 744 l 513 428 l 251 744 l 8 744 l 282 436 l 0 0 l 236 0 l 424 297 l 513 193 l 513 0 z "},"з":{"ha":726,"x_min":0,"x_max":0,"o":"m 139 508 b 340 586 190 557 260 586 b 438 515 397 586 438 554 b 331 439 438 474 397 439 l 244 439 l 244 307 l 332 307 b 456 231 413 307 456 272 b 346 151 456 188 410 151 b 122 236 265 151 183 183 l 25 101 b 364 -17 110 26 221 -17 b 664 211 540 -17 664 82 b 532 385 664 304 610 357 b 646 553 597 414 646 464 b 363 754 646 668 524 754 b 49 638 233 754 124 707 z "},"и":{"ha":882,"x_min":0,"x_max":0,"o":"m 788 744 l 589 744 l 299 310 l 299 744 l 94 744 l 94 0 l 293 0 l 583 433 l 583 0 l 788 0 z "},"й":{"ha":882,"x_min":0,"x_max":0,"o":"m 788 744 l 589 744 l 299 310 l 299 744 l 94 744 l 94 0 l 293 0 l 583 433 l 583 0 l 788 0 z m 447 815 b 681 1026 575 815 661 893 l 557 1049 b 447 956 539 992 506 956 b 338 1049 389 956 356 992 l 214 1026 b 447 815 233 893 319 815 z "},"к":{"ha":849,"x_min":0,"x_max":0,"o":"m 94 0 l 306 0 l 306 179 l 401 283 l 600 0 l 850 0 l 542 439 l 815 744 l 572 744 l 306 439 l 306 744 l 94 744 z "},"л":{"ha":876,"x_min":0,"x_max":0,"o":"m 183 744 b 63 171 183 217 142 171 b 18 175 53 171 26 174 l 4 4 b 111 -8 32 -3 83 -8 b 382 564 297 -8 382 71 l 571 564 l 571 0 l 782 0 l 782 744 z "},"м":{"ha":1022,"x_min":0,"x_max":0,"o":"m 94 0 l 303 0 l 303 443 l 507 142 l 714 447 l 714 0 l 928 0 l 928 744 l 714 744 l 510 432 l 308 744 l 94 744 z "},"н":{"ha":871,"x_min":0,"x_max":0,"o":"m 776 744 l 565 744 l 565 458 l 306 458 l 306 744 l 94 744 l 94 0 l 306 0 l 306 285 l 565 285 l 565 0 l 776 0 z "},"о":{"ha":922,"x_min":0,"x_max":0,"o":"m 460 -17 b 864 371 692 -17 864 157 b 463 758 864 588 693 758 b 58 371 231 758 58 585 b 460 -17 58 154 229 -17 z m 463 165 b 267 371 346 165 267 261 b 460 576 267 483 339 576 b 656 371 576 576 656 481 b 463 165 656 258 583 165 z "},"п":{"ha":865,"x_min":0,"x_max":0,"o":"m 771 744 l 94 744 l 94 0 l 306 0 l 306 564 l 560 564 l 560 0 l 771 0 z "},"р":{"ha":938,"x_min":0,"x_max":0,"o":"m 94 -222 l 306 -222 l 306 97 b 538 -14 356 38 425 -14 b 876 371 714 -14 876 122 b 538 758 876 622 711 758 b 306 638 428 758 357 707 l 306 744 l 94 744 z m 483 165 b 303 371 385 165 303 247 b 483 579 303 497 385 579 b 665 374 582 579 665 497 b 483 165 665 246 582 165 z "},"с":{"ha":793,"x_min":0,"x_max":0,"o":"m 446 -17 b 750 119 594 -17 678 40 l 626 244 b 456 165 575 196 526 165 b 267 371 340 165 267 257 b 447 576 267 483 342 576 b 621 503 531 576 575 546 l 744 628 b 449 758 675 706 589 758 b 58 371 221 758 58 583 b 446 -17 58 156 222 -17 z "},"т":{"ha":697,"x_min":0,"x_max":0,"o":"m 676 744 l 21 744 l 21 564 l 242 564 l 242 0 l 456 0 l 456 564 l 676 564 z "},"у":{"ha":833,"x_min":0,"x_max":0,"o":"m 272 -226 b 517 -18 399 -226 460 -169 l 803 744 l 583 744 l 421 238 l 251 744 l 28 744 l 319 -3 b 246 -51 301 -40 282 -51 b 156 -22 218 -51 183 -39 l 85 -175 b 272 -226 139 -207 196 -226 z "},"ф":{"ha":1254,"x_min":0,"x_max":0,"o":"m 824 576 b 982 371 926 576 982 493 b 824 167 982 244 928 167 b 733 200 786 167 761 179 l 733 540 b 824 576 761 561 786 576 z m 733 -222 l 733 50 b 892 -10 763 18 825 -10 b 1193 371 1068 -10 1193 129 b 890 753 1193 611 1068 753 b 733 683 824 753 763 718 l 733 972 l 521 972 l 521 683 b 364 753 492 718 431 753 b 61 371 186 753 61 611 b 363 -10 61 129 186 -10 b 521 50 429 -10 492 18 l 521 -222 z m 431 576 b 521 540 468 576 493 561 l 521 200 b 431 167 493 179 468 167 b 272 371 326 167 272 244 b 431 576 272 493 328 576 z "},"х":{"ha":811,"x_min":0,"x_max":0,"o":"m 32 0 l 253 0 l 403 232 l 553 0 l 779 0 l 517 382 l 768 744 l 547 744 l 407 528 l 268 744 l 42 744 l 293 378 z "},"ц":{"ha":893,"x_min":0,"x_max":0,"o":"m 669 -175 l 847 -175 l 872 181 l 771 181 l 771 744 l 560 744 l 560 181 l 306 181 l 306 744 l 94 744 l 94 0 l 669 0 z "},"ч":{"ha":842,"x_min":0,"x_max":0,"o":"m 288 744 l 74 744 l 74 451 b 333 211 74 296 185 211 b 535 260 408 211 483 235 l 535 0 l 747 0 l 747 744 l 535 744 l 535 425 b 390 389 493 404 447 389 b 288 511 321 389 288 433 z "},"ш":{"ha":1297,"x_min":0,"x_max":0,"o":"m 1203 744 l 990 744 l 990 181 l 754 181 l 754 744 l 543 744 l 543 181 l 306 181 l 306 744 l 94 744 l 94 0 l 1203 0 z "},"щ":{"ha":1325,"x_min":0,"x_max":0,"o":"m 1101 0 l 1101 -175 l 1279 -175 l 1304 181 l 1203 181 l 1203 744 l 990 744 l 990 181 l 754 181 l 754 744 l 543 744 l 543 181 l 306 181 l 306 744 l 94 744 l 94 0 z "},"ъ":{"ha":901,"x_min":0,"x_max":0,"o":"m 557 339 b 663 256 626 339 663 307 b 558 167 663 199 628 167 l 425 167 l 425 339 z m 425 744 l 21 744 l 21 567 l 214 567 l 214 0 l 589 0 b 875 253 768 0 875 96 b 578 499 875 419 750 499 l 425 499 z "},"ы":{"ha":1160,"x_min":0,"x_max":0,"o":"m 94 0 l 469 0 b 756 253 649 0 756 96 b 458 499 756 419 631 499 l 306 499 l 306 744 l 94 744 z m 438 339 b 543 256 507 339 543 307 b 439 167 543 199 508 167 l 306 167 l 306 339 z m 854 0 l 1065 0 l 1065 744 l 854 744 z "},"ь":{"ha":782,"x_min":0,"x_max":0,"o":"m 94 0 l 469 0 b 756 253 649 0 756 96 b 458 499 756 419 631 499 l 306 499 l 306 744 l 94 744 z m 438 339 b 543 256 507 339 543 307 b 439 167 543 199 508 167 l 306 167 l 306 339 z "},"э":{"ha":799,"x_min":0,"x_max":0,"o":"m 268 301 l 528 301 b 343 160 503 218 436 160 b 163 240 269 160 215 190 l 43 119 b 353 -17 115 40 204 -17 b 740 371 576 -17 740 156 b 350 758 740 583 578 758 b 61 640 215 758 119 699 l 171 511 b 351 582 219 557 274 582 b 526 443 436 582 501 524 l 268 443 z "},"ю":{"ha":1207,"x_min":0,"x_max":0,"o":"m 772 -17 b 1149 371 997 -17 1149 157 b 775 758 1149 588 999 758 b 407 458 582 758 443 629 l 306 458 l 306 744 l 94 744 l 94 0 l 306 0 l 306 285 l 407 285 b 772 -17 440 110 579 -17 z m 775 165 b 607 371 665 165 607 261 b 772 576 607 483 658 576 b 940 371 882 576 940 481 b 775 165 940 258 889 165 z "},"я":{"ha":849,"x_min":0,"x_max":0,"o":"m 754 744 l 364 744 b 63 496 169 744 63 644 b 218 274 63 381 124 310 l 28 0 l 272 0 l 429 239 l 543 239 l 543 0 l 754 0 z m 400 392 b 276 485 324 392 276 425 b 399 579 276 546 322 579 l 543 579 l 543 392 z "},"ё":{"ha":851,"x_min":0,"x_max":0,"o":"m 447 -17 b 751 122 582 -17 682 36 l 631 229 b 450 153 572 175 521 153 b 268 299 356 153 289 203 l 786 299 b 789 354 788 318 789 338 b 426 758 789 565 675 758 b 58 371 210 758 58 583 b 447 -17 58 140 224 -17 z m 265 431 b 426 589 282 526 339 589 b 583 431 515 589 571 525 z m 472 826 l 675 826 l 675 1014 l 472 1014 z m 175 826 l 378 826 l 378 1014 l 175 1014 z "},"ђ":{"ha":865,"x_min":0,"x_max":0,"o":"m 565 331 b 428 174 565 231 510 174 b 397 176 417 174 407 174 l 363 15 b 511 -11 388 8 419 -11 b 776 268 667 -11 776 93 l 776 426 b 524 703 776 597 683 703 b 306 583 417 703 354 646 l 306 765 l 522 765 l 522 913 l 306 913 l 306 1014 l 94 1014 l 94 913 l 3 913 l 3 765 l 94 765 l 94 0 l 306 0 l 306 360 b 438 511 306 460 357 511 b 565 360 518 511 565 460 z "},"ѓ":{"ha":658,"x_min":0,"x_max":0,"o":"m 638 564 l 638 744 l 94 744 l 94 0 l 306 0 l 306 564 z m 229 826 l 390 826 l 568 993 l 386 1072 z "},"є":{"ha":799,"x_min":0,"x_max":0,"o":"m 531 443 l 272 443 b 447 582 297 524 363 582 b 628 511 525 582 579 557 l 738 640 b 449 758 679 699 583 758 b 58 371 221 758 58 583 b 446 -17 58 156 222 -17 b 756 119 594 -17 683 40 l 636 240 b 456 160 583 190 529 160 b 271 301 363 160 296 218 l 531 301 z "},"ѕ":{"ha":697,"x_min":0,"x_max":0,"o":"m 356 -14 b 640 226 517 -14 640 61 b 415 450 640 365 519 415 b 264 539 335 478 264 497 b 342 593 264 571 290 593 b 543 524 396 593 469 567 l 624 669 b 346 756 543 724 440 756 b 74 519 196 756 74 671 b 296 293 74 372 192 324 b 450 207 378 268 450 253 b 361 149 450 171 422 149 b 126 238 292 149 207 179 l 36 99 b 356 -14 135 21 251 -14 z "},"і":{"ha":419,"x_min":0,"x_max":0,"o":"m 99 826 l 321 826 l 321 1014 l 99 1014 z m 104 0 l 315 0 l 315 744 l 104 744 z "},"ї":{"ha":419,"x_min":0,"x_max":0,"o":"m 257 826 l 460 826 l 460 1014 l 257 1014 z m -40 826 l 163 826 l 163 1014 l -40 1014 z m 104 0 l 315 0 l 315 744 l 104 744 z "},"ј":{"ha":419,"x_min":0,"x_max":0,"o":"m 99 826 l 321 826 l 321 1014 l 99 1014 z m 76 -226 b 315 13 232 -226 315 -151 l 315 744 l 104 744 l 104 29 b 29 -57 104 -33 74 -57 b -15 -53 14 -57 1 -56 l -15 -218 b 76 -226 14 -224 38 -226 z "},"љ":{"ha":1258,"x_min":0,"x_max":0,"o":"m 571 0 l 946 0 b 1232 253 1125 0 1232 96 b 935 499 1232 419 1107 499 l 782 499 l 782 744 l 183 744 b 63 171 183 217 142 171 b 18 175 53 171 26 174 l 4 4 b 111 -8 28 -3 83 -8 b 382 564 297 -8 382 71 l 571 564 z m 914 339 b 1019 256 983 339 1019 307 b 915 167 1019 199 985 167 l 782 167 l 782 339 z "},"њ":{"ha":1253,"x_min":0,"x_max":0,"o":"m 565 0 l 940 0 b 1226 246 1119 0 1226 89 b 929 488 1226 413 1101 488 l 776 488 l 776 744 l 565 744 l 565 488 l 306 488 l 306 744 l 94 744 l 94 0 l 306 0 l 306 328 l 565 328 z m 908 328 b 1014 249 978 328 1014 300 b 910 167 1014 192 979 167 l 776 167 l 776 328 z "},"ћ":{"ha":865,"x_min":0,"x_max":0,"o":"m 3 913 l 3 765 l 94 765 l 94 0 l 306 0 l 306 360 b 438 511 306 460 357 511 b 565 360 518 511 565 460 l 565 0 l 776 0 l 776 426 b 524 703 776 597 683 703 b 306 583 417 703 354 646 l 306 765 l 522 765 l 522 913 l 306 913 l 306 1014 l 94 1014 l 94 913 z "},"ќ":{"ha":849,"x_min":0,"x_max":0,"o":"m 94 0 l 306 0 l 306 179 l 401 283 l 600 0 l 850 0 l 542 439 l 815 744 l 572 744 l 306 439 l 306 744 l 94 744 z m 324 826 l 485 826 l 663 993 l 481 1072 z "},"ў":{"ha":833,"x_min":0,"x_max":0,"o":"m 272 -226 b 517 -18 399 -226 460 -169 l 803 744 l 583 744 l 421 238 l 251 744 l 28 744 l 319 -3 b 246 -51 301 -40 282 -51 b 156 -22 218 -51 183 -39 l 85 -175 b 272 -226 139 -207 196 -226 z m 419 815 b 653 1026 547 815 633 893 l 529 1049 b 419 956 511 992 478 956 b 310 1049 361 956 328 992 l 186 1026 b 419 815 206 893 292 815 z "},"џ":{"ha":865,"x_min":0,"x_max":0,"o":"m 336 -175 l 535 -175 l 535 0 l 771 0 l 771 744 l 560 744 l 560 181 l 306 181 l 306 744 l 94 744 l 94 0 l 336 0 z "},"Ґ":{"ha":831,"x_min":0,"x_max":0,"o":"m 796 779 l 768 1175 l 590 1175 l 590 972 l 117 972 l 117 0 l 331 0 l 331 779 z "},"ґ":{"ha":658,"x_min":0,"x_max":0,"o":"m 638 564 l 613 919 l 435 919 l 435 744 l 94 744 l 94 0 l 306 0 l 306 564 z "},"–":{"ha":733,"x_min":0,"x_max":0,"o":"m 69 332 l 664 332 l 664 529 l 69 529 z "},"—":{"ha":1247,"x_min":0,"x_max":0,"o":"m 69 332 l 1178 332 l 1178 529 l 69 529 z "},"‘":{"ha":397,"x_min":0,"x_max":0,"o":"m 79 532 l 304 532 l 304 754 l 218 754 b 354 892 211 833 258 882 l 336 979 b 79 719 171 976 79 903 z "},"’":{"ha":397,"x_min":0,"x_max":0,"o":"m 61 525 b 318 785 226 528 318 601 l 318 972 l 93 972 l 93 750 l 179 750 b 43 613 186 671 139 622 z "},"‚":{"ha":397,"x_min":0,"x_max":0,"o":"m 54 -225 b 311 35 219 -222 311 -149 l 311 222 l 86 222 l 86 0 l 172 0 b 36 -137 179 -79 132 -128 z "},"“":{"ha":750,"x_min":0,"x_max":0,"o":"m 432 532 l 657 532 l 657 754 l 571 754 b 707 892 564 833 611 882 l 689 979 b 432 719 524 976 432 903 z m 79 532 l 304 532 l 304 754 l 218 754 b 354 892 211 833 258 882 l 336 979 b 79 719 171 976 79 903 z "},"”":{"ha":750,"x_min":0,"x_max":0,"o":"m 414 525 b 671 785 579 528 671 601 l 671 972 l 446 972 l 446 750 l 532 750 b 396 613 539 671 492 622 z m 61 525 b 318 785 226 528 318 601 l 318 972 l 93 972 l 93 750 l 179 750 b 43 613 186 671 139 622 z "},"„":{"ha":750,"x_min":0,"x_max":0,"o":"m 407 -225 b 664 35 572 -222 664 -149 l 664 222 l 439 222 l 439 0 l 525 0 b 389 -137 532 -79 485 -128 z m 54 -225 b 311 35 219 -222 311 -149 l 311 222 l 86 222 l 86 0 l 172 0 b 36 -137 179 -79 132 -128 z "},"†":{"ha":569,"x_min":0,"x_max":0,"o":"m 226 331 l 343 331 l 329 706 l 496 692 l 496 807 l 331 793 l 349 972 l 221 972 l 239 793 l 74 807 l 74 692 l 240 706 z "},"‡":{"ha":597,"x_min":0,"x_max":0,"o":"m 235 0 l 363 0 l 344 179 l 510 165 l 510 281 l 344 267 l 357 486 l 344 706 l 510 692 l 510 807 l 344 793 l 363 972 l 235 972 l 253 793 l 88 807 l 88 692 l 253 706 l 240 486 l 253 267 l 88 281 l 88 165 l 253 179 z "},"•":{"ha":694,"x_min":0,"x_max":0,"o":"m 347 282 b 554 488 461 282 554 374 l 554 490 b 347 696 554 604 461 696 b 140 490 233 696 140 604 l 140 488 b 347 282 140 374 233 282 z "},"…":{"ha":1167,"x_min":0,"x_max":0,"o":"m 861 0 l 1081 0 l 1081 217 l 861 217 z m 474 0 l 693 0 l 693 217 l 474 217 z m 86 0 l 306 0 l 306 217 l 86 217 z "},"‰":{"ha":1722,"x_min":0,"x_max":0,"o":"m 297 486 b 535 735 439 486 535 599 l 535 738 b 300 983 535 874 440 983 b 63 735 158 983 63 872 l 63 732 b 297 486 63 596 157 486 z m 160 0 l 325 0 l 1035 972 l 869 972 z m 1422 -11 b 1660 238 1564 -11 1660 101 l 1660 240 b 1425 486 1660 376 1565 486 b 1188 238 1283 486 1188 375 l 1188 235 b 1422 -11 1188 99 1282 -11 z m 894 -11 b 1132 238 1036 -11 1132 101 l 1132 240 b 897 486 1132 376 1038 486 b 660 238 756 486 660 375 l 660 235 b 894 -11 660 99 754 -11 z m 300 613 b 208 735 244 613 208 669 l 208 738 b 297 857 208 801 239 857 b 389 735 353 857 389 800 l 389 732 b 300 613 389 669 358 613 z m 1425 115 b 1333 238 1369 115 1333 172 l 1333 240 b 1422 360 1333 304 1364 360 b 1514 238 1478 360 1514 303 l 1514 235 b 1425 115 1514 172 1483 115 z m 897 115 b 806 238 842 115 806 172 l 806 240 b 894 360 806 304 836 360 b 986 238 950 360 986 303 l 986 235 b 897 115 986 172 956 115 z "},"‹":{"ha":518,"x_min":0,"x_max":0,"o":"m 290 56 l 451 136 l 271 374 l 451 611 l 290 689 l 57 378 l 57 367 z "},"›":{"ha":518,"x_min":0,"x_max":0,"o":"m 228 56 l 461 367 l 461 378 l 228 689 l 67 608 l 247 371 l 67 133 z "},"⁄":{"ha":667,"x_min":0,"x_max":0,"o":"m -99 -136 l 88 -136 l 735 1053 l 549 1053 z "},"€":{"ha":1000,"x_min":0,"x_max":0,"o":"m 607 -17 b 947 175 767 -17 865 60 l 794 288 b 607 174 733 213 688 174 b 419 301 518 174 456 219 l 678 301 l 678 442 l 389 442 b 388 486 388 456 388 471 b 389 536 388 506 388 521 l 678 536 l 678 676 l 421 676 b 599 799 457 754 517 799 b 783 689 679 799 731 760 l 944 811 b 603 989 871 914 775 989 b 199 676 399 989 256 860 l 68 676 l 68 536 l 172 536 b 171 486 171 519 171 503 b 172 442 171 469 171 456 l 68 442 l 68 301 l 196 301 b 607 -17 250 111 394 -17 z "},"№":{"ha":1474,"x_min":0,"x_max":0,"o":"m 86 0 l 307 0 l 307 606 l 701 0 l 886 0 l 886 972 l 665 972 l 665 383 l 286 972 l 86 972 z m 1001 172 l 1374 172 l 1374 299 l 1001 299 z m 1186 368 b 1401 582 1308 368 1401 463 b 1189 794 1401 701 1311 794 b 974 581 1067 794 974 700 b 1186 368 974 461 1064 368 z m 1189 479 b 1099 582 1135 479 1099 526 b 1186 683 1099 638 1132 683 b 1276 581 1240 683 1276 636 b 1189 479 1276 525 1243 479 z "},"℗":{"ha":1153,"x_min":0,"x_max":0,"o":"m 575 -17 b 1079 486 857 -17 1079 213 l 1079 489 b 578 989 1079 763 860 989 b 74 486 296 989 74 760 l 74 483 b 575 -17 74 210 293 -17 z m 575 39 b 132 483 322 39 132 238 l 132 486 b 578 933 132 732 324 933 b 1021 489 831 933 1021 735 l 1021 486 b 575 39 1021 240 829 39 z m 392 228 l 511 228 l 511 389 l 600 389 b 817 575 719 389 817 453 l 817 578 b 611 763 817 688 739 763 l 392 763 z m 511 493 l 511 657 l 600 657 b 696 576 658 657 696 628 l 696 574 b 603 493 696 528 661 493 z "},"™":{"ha":958,"x_min":0,"x_max":0,"o":"m 479 544 l 571 544 l 571 833 l 689 646 l 697 646 l 815 833 l 815 544 l 907 544 l 907 972 l 807 972 l 694 792 l 582 972 l 479 972 z m 164 544 l 261 544 l 261 886 l 389 886 l 389 972 l 36 972 l 36 886 l 164 886 z "},"∂":{"ha":694,"x_min":0,"x_max":0,"o":"m 0 0 l 694 0 l 694 972 l 0 972 z m 113 68 l 347 422 l 583 68 z m 68 133 l 68 839 l 306 486 z m 625 133 l 388 486 l 625 839 z m 347 549 l 113 903 l 583 903 z "},"∆":{"ha":792,"x_min":0,"x_max":0,"o":"m 1028 0 l 625 972 l 426 972 l 24 0 z m 528 692 l 724 189 l 333 189 z "},"∏":{"ha":694,"x_min":0,"x_max":0,"o":"m 0 0 l 694 0 l 694 972 l 0 972 z m 113 68 l 347 422 l 583 68 z m 68 133 l 68 839 l 306 486 z m 625 133 l 388 486 l 625 839 z m 347 549 l 113 903 l 583 903 z "},"∑":{"ha":694,"x_min":0,"x_max":0,"o":"m 0 0 l 694 0 l 694 972 l 0 972 z m 113 68 l 347 422 l 583 68 z m 68 133 l 68 839 l 306 486 z m 625 133 l 388 486 l 625 839 z m 347 549 l 113 903 l 583 903 z "},"−":{"ha":889,"x_min":0,"x_max":0,"o":"m 774 392 l 774 586 l 115 586 l 115 392 z "},"√":{"ha":840,"x_min":0,"x_max":0,"o":"m 114 321 l 371 -178 l 911 1108 l 756 1108 l 356 154 l 199 457 l -35 457 l -35 321 z "},"∞":{"ha":1200,"x_min":0,"x_max":0,"o":"m 333 203 b 600 365 454 203 528 278 b 871 203 671 278 753 203 b 1138 492 1040 203 1138 331 b 872 774 1138 653 1039 774 b 600 603 744 774 672 697 b 328 774 528 697 456 774 b 63 492 161 774 63 653 b 333 203 63 328 164 203 z m 332 376 b 226 489 265 376 226 425 b 329 601 226 550 265 601 b 500 489 397 601 461 539 b 332 376 460 438 401 376 z m 871 376 b 700 489 799 376 742 436 b 867 601 738 538 800 601 b 974 489 933 601 974 553 b 871 376 974 426 938 376 z "},"∫":{"ha":694,"x_min":0,"x_max":0,"o":"m 0 0 l 694 0 l 694 972 l 0 972 z m 113 68 l 347 422 l 583 68 z m 68 133 l 68 839 l 306 486 z m 625 133 l 388 486 l 625 839 z m 347 549 l 113 903 l 583 903 z "},"≈":{"ha":889,"x_min":0,"x_max":0,"o":"m 208 535 b 313 600 228 581 269 600 b 589 546 358 600 514 546 b 792 760 703 546 763 632 l 685 789 b 581 724 667 743 632 724 b 306 778 535 724 381 778 b 103 564 194 778 132 692 z m 208 182 b 313 247 228 228 269 247 b 589 193 358 247 514 193 b 792 407 703 193 763 279 l 685 436 b 581 371 667 390 632 371 b 306 425 535 371 381 425 b 103 211 194 425 132 339 z "},"≠":{"ha":889,"x_min":0,"x_max":0,"o":"m 110 574 l 431 574 l 319 404 l 110 404 l 110 215 l 196 215 l 99 67 l 231 67 l 329 215 l 778 215 l 778 404 l 451 404 l 563 574 l 778 574 l 778 763 l 686 763 l 781 906 l 649 906 l 554 763 l 110 763 z "},"≤":{"ha":889,"x_min":0,"x_max":0,"o":"m 782 253 l 782 454 l 311 582 l 782 708 l 782 910 l 111 679 l 111 483 z m 110 24 l 783 24 l 783 203 l 110 203 z "},"≥":{"ha":889,"x_min":0,"x_max":0,"o":"m 782 483 l 782 679 l 111 910 l 111 708 l 582 582 l 111 454 l 111 253 z m 783 203 l 110 203 l 110 24 l 783 24 z "},"◊":{"ha":889,"x_min":0,"x_max":0,"o":"m 796 494 l 532 1038 l 356 1038 l 93 494 l 354 -49 l 532 -49 z m 596 494 l 444 147 l 293 494 l 444 840 z "},"":{"ha":694,"x_min":0,"x_max":0,"o":"m 344 824 b 578 1035 472 824 558 901 l 454 1057 b 344 964 436 1000 403 964 b 235 1057 286 964 253 1000 l 111 1035 b 344 824 131 901 217 824 z "},"":{"ha":694,"x_min":0,"x_max":0,"o":"m 344 815 b 578 1026 472 815 558 893 l 454 1049 b 344 956 436 992 403 956 b 235 1049 286 956 253 992 l 111 1026 b 344 815 131 893 217 815 z "},"ﬀ":{"ha":1061,"x_min":0,"x_max":0,"o":"m 661 0 l 872 0 l 872 564 l 1040 564 l 1040 736 l 869 736 l 869 765 b 946 846 869 821 897 846 b 1042 828 982 846 1011 839 l 1042 1003 b 892 1024 1003 1015 958 1024 b 721 965 817 1024 760 1004 b 661 785 682 926 661 867 l 661 738 l 574 738 l 574 564 l 661 564 z m 131 0 l 342 0 l 342 564 l 510 564 l 510 736 l 339 736 l 339 765 b 415 846 339 821 367 846 b 511 828 451 846 481 839 l 511 1003 b 361 1024 472 1015 428 1024 b 190 965 286 1024 229 1004 b 131 785 151 926 131 867 l 131 738 l 43 738 l 43 564 l 131 564 z "},"ﬁ":{"ha":950,"x_min":0,"x_max":0,"o":"m 629 826 l 851 826 l 851 1014 l 629 1014 z m 131 0 l 342 0 l 342 564 l 510 564 l 510 736 l 339 736 l 339 765 b 415 846 339 821 367 846 b 511 828 451 846 481 839 l 511 1003 b 361 1024 472 1015 428 1024 b 190 965 286 1024 229 1004 b 131 785 151 926 131 867 l 131 738 l 43 738 l 43 564 l 131 564 z m 635 0 l 846 0 l 846 744 l 635 744 z "},"ﬂ":{"ha":950,"x_min":0,"x_max":0,"o":"m 131 0 l 342 0 l 342 564 l 510 564 l 510 736 l 339 736 l 339 765 b 415 846 339 821 367 846 b 511 828 451 846 481 839 l 511 1003 b 361 1024 472 1015 428 1024 b 190 965 286 1024 229 1004 b 131 785 151 926 131 867 l 131 738 l 43 738 l 43 564 l 131 564 z m 635 0 l 846 0 l 846 1014 l 635 1014 z "},"ﬃ":{"ha":1481,"x_min":0,"x_max":0,"o":"m 1160 826 l 1382 826 l 1382 1014 l 1160 1014 z m 661 0 l 872 0 l 872 564 l 1040 564 l 1040 736 l 869 736 l 869 765 b 946 846 869 821 897 846 b 1042 828 982 846 1011 839 l 1042 1003 b 892 1024 1003 1015 958 1024 b 721 965 817 1024 760 1004 b 661 785 682 926 661 867 l 661 738 l 574 738 l 574 564 l 661 564 z m 131 0 l 342 0 l 342 564 l 510 564 l 510 736 l 339 736 l 339 765 b 415 846 339 821 367 846 b 511 828 451 846 481 839 l 511 1003 b 361 1024 472 1015 428 1024 b 190 965 286 1024 229 1004 b 131 785 151 926 131 867 l 131 738 l 43 738 l 43 564 l 131 564 z m 1165 0 l 1376 0 l 1376 744 l 1165 744 z "},"ﬄ":{"ha":1481,"x_min":0,"x_max":0,"o":"m 661 0 l 872 0 l 872 564 l 1040 564 l 1040 736 l 869 736 l 869 765 b 946 846 869 821 897 846 b 1042 828 982 846 1011 839 l 1042 1003 b 892 1024 1003 1015 958 1024 b 721 965 817 1024 760 1004 b 661 785 682 926 661 867 l 661 738 l 574 738 l 574 564 l 661 564 z m 131 0 l 342 0 l 342 564 l 510 564 l 510 736 l 339 736 l 339 765 b 415 846 339 821 367 846 b 511 828 451 846 481 839 l 511 1003 b 361 1024 472 1015 428 1024 b 190 965 286 1024 229 1004 b 131 785 151 926 131 867 l 131 738 l 43 738 l 43 564 l 131 564 z m 1165 0 l 1376 0 l 1376 1014 l 1165 1014 z "}}}
